<svg id="svg" version="1.1" xmlns="http://www.w3.org/2000/svg" xmlns:xlink="http://www.w3.org/1999/xlink" width="400" height="400" viewBox="0, 0, 400,400"><g id="svgg"><path id="path0" d="M319.200 18.800 C 319.200 19.020,318.480 19.200,317.600 19.200 C 316.720 19.200,316.000 19.380,316.000 19.600 C 316.000 19.820,315.460 20.000,314.800 20.000 C 314.140 20.000,313.600 20.180,313.600 20.400 C 313.600 20.620,312.880 20.800,312.000 20.800 C 311.120 20.800,310.400 20.980,310.400 21.200 C 310.400 21.420,309.770 21.600,309.000 21.600 C 308.230 21.600,307.600 21.780,307.600 22.000 C 307.600 22.220,306.880 22.400,306.000 22.400 C 305.120 22.400,304.400 22.580,304.400 22.800 C 304.400 23.020,303.680 23.200,302.800 23.200 C 301.920 23.200,301.200 23.380,301.200 23.600 C 301.200 23.820,300.480 24.000,299.600 24.000 C 298.720 24.000,298.000 24.166,298.000 24.368 C 298.000 24.571,296.827 24.862,295.394 25.015 C 293.961 25.169,292.691 25.453,292.571 25.647 C 292.451 25.841,291.733 26.000,290.976 26.000 C 290.219 26.000,289.600 26.180,289.600 26.400 C 289.600 26.620,288.880 26.800,288.000 26.800 C 287.120 26.800,286.400 26.980,286.400 27.200 C 286.400 27.420,285.680 27.600,284.800 27.600 C 283.920 27.600,283.200 27.780,283.200 28.000 C 283.200 28.220,282.480 28.400,281.600 28.400 C 280.720 28.400,280.000 28.580,280.000 28.800 C 280.000 29.020,279.460 29.200,278.800 29.200 C 278.140 29.200,277.600 29.380,277.600 29.600 C 277.600 29.820,276.970 30.000,276.200 30.000 C 275.430 30.000,274.800 30.180,274.800 30.400 C 274.800 30.620,274.080 30.800,273.200 30.800 C 272.320 30.800,271.600 30.980,271.600 31.200 C 271.600 31.420,270.880 31.600,270.000 31.600 C 269.120 31.600,268.400 31.780,268.400 32.000 C 268.400 32.220,267.680 32.400,266.800 32.400 C 265.920 32.400,265.200 32.580,265.200 32.800 C 265.200 33.020,264.480 33.200,263.600 33.200 C 262.720 33.200,262.000 33.380,262.000 33.600 C 262.000 33.820,261.460 34.000,260.800 34.000 C 260.140 34.000,259.600 34.180,259.600 34.400 C 259.600 34.620,258.970 34.800,258.200 34.800 C 257.430 34.800,256.800 34.980,256.800 35.200 C 256.800 35.420,256.080 35.600,255.200 35.600 C 254.320 35.600,253.600 35.780,253.600 36.000 C 253.600 36.220,252.880 36.400,252.000 36.400 C 251.120 36.400,250.400 36.580,250.400 36.800 C 250.400 37.020,249.680 37.200,248.800 37.200 C 247.920 37.200,247.200 37.380,247.200 37.600 C 247.200 37.820,246.480 38.000,245.600 38.000 C 244.720 38.000,244.000 38.180,244.000 38.400 C 244.000 38.620,243.370 38.800,242.600 38.800 C 241.830 38.800,241.200 38.980,241.200 39.200 C 241.200 39.420,240.924 39.600,240.587 39.600 C 240.249 39.600,239.343 40.230,238.573 41.000 C 237.803 41.770,236.999 42.400,236.787 42.400 C 236.572 42.400,236.400 43.739,236.400 45.409 L 236.400 48.417 238.591 50.609 C 239.797 51.814,241.057 52.800,241.391 52.800 C 241.726 52.800,242.000 52.952,242.000 53.139 C 242.000 53.728,243.470 55.200,244.059 55.200 C 244.369 55.200,244.883 55.560,245.200 56.000 C 245.517 56.440,246.031 56.800,246.341 56.800 C 246.652 56.800,247.197 57.131,247.553 57.536 C 247.909 57.941,248.695 58.394,249.300 58.544 C 249.905 58.693,250.400 58.992,250.400 59.208 C 250.400 59.423,250.688 59.600,251.040 59.600 C 251.391 59.600,252.183 60.140,252.800 60.800 C 253.417 61.460,254.169 62.000,254.472 62.000 C 254.775 62.000,255.283 62.360,255.600 62.800 C 255.917 63.240,256.420 63.600,256.717 63.600 C 257.989 63.600,258.546 64.779,257.644 65.562 C 257.180 65.965,256.800 66.548,256.800 66.859 C 256.800 67.169,256.440 67.683,256.000 68.000 C 255.560 68.317,255.200 68.857,255.200 69.200 C 255.200 69.543,254.840 70.083,254.400 70.400 C 253.960 70.717,253.600 71.225,253.600 71.528 C 253.600 71.831,253.060 72.583,252.400 73.200 C 251.740 73.817,251.200 74.609,251.200 74.960 C 251.200 75.312,251.039 75.600,250.842 75.600 C 250.300 75.600,248.000 77.855,248.000 78.386 C 248.000 78.642,247.100 79.729,246.000 80.800 C 244.900 81.871,244.000 82.934,244.000 83.161 C 244.000 83.598,242.496 85.374,239.700 88.238 C 238.765 89.195,237.995 90.209,237.988 90.489 C 237.981 90.770,237.430 91.450,236.762 92.000 C 233.027 95.077,229.200 99.218,229.200 100.183 C 229.200 100.742,229.020 101.200,228.800 101.200 C 228.580 101.200,228.400 101.740,228.400 102.400 C 228.400 103.060,228.580 103.600,228.800 103.600 C 229.020 103.600,229.200 104.057,229.200 104.616 C 229.200 108.504,237.254 110.512,240.090 107.331 C 240.811 106.523,243.605 103.645,246.300 100.935 C 248.995 98.225,251.200 95.814,251.200 95.578 C 251.200 95.125,254.499 91.813,255.949 90.812 C 256.417 90.488,256.800 89.936,256.800 89.584 C 256.800 89.232,257.205 88.564,257.700 88.100 C 259.016 86.865,259.600 86.092,259.600 85.586 C 259.600 85.339,260.320 84.446,261.200 83.600 C 262.080 82.754,262.800 81.851,262.800 81.592 C 262.800 81.333,263.340 80.617,264.000 80.000 C 264.660 79.383,265.200 78.631,265.200 78.328 C 265.200 78.025,265.560 77.517,266.000 77.200 C 266.440 76.883,266.800 76.315,266.800 75.939 C 266.800 75.562,267.160 75.140,267.600 75.000 C 268.040 74.860,268.400 74.438,268.400 74.061 C 268.400 73.685,268.760 73.117,269.200 72.800 C 269.640 72.483,270.000 71.943,270.000 71.600 C 270.000 71.257,270.360 70.717,270.800 70.400 C 271.240 70.083,271.600 69.503,271.600 69.112 C 271.600 68.720,271.780 68.400,272.000 68.400 C 272.220 68.400,272.400 68.040,272.400 67.600 C 272.400 67.160,272.580 66.800,272.800 66.800 C 273.020 66.800,273.200 66.440,273.200 66.000 C 273.200 65.560,273.380 65.200,273.600 65.200 C 273.823 65.200,274.000 64.113,274.000 62.740 C 274.000 60.317,270.894 56.000,269.151 56.000 C 268.915 56.000,268.217 55.460,267.600 54.800 C 266.983 54.140,266.231 53.600,265.928 53.600 C 265.625 53.600,265.117 53.240,264.800 52.800 C 264.483 52.360,263.943 52.000,263.600 52.000 C 263.257 52.000,262.717 51.640,262.400 51.200 C 262.083 50.760,261.580 50.400,261.283 50.400 C 260.551 50.400,259.600 49.400,259.600 48.629 C 259.600 48.162,260.012 48.000,261.200 48.000 C 262.080 48.000,262.800 47.820,262.800 47.600 C 262.800 47.380,263.520 47.200,264.400 47.200 C 265.280 47.200,266.000 47.020,266.000 46.800 C 266.000 46.580,266.540 46.400,267.200 46.400 C 267.860 46.400,268.400 46.220,268.400 46.000 C 268.400 45.780,269.120 45.600,270.000 45.600 C 270.880 45.600,271.600 45.420,271.600 45.200 C 271.600 44.980,272.320 44.800,273.200 44.800 C 274.080 44.800,274.800 44.620,274.800 44.400 C 274.800 44.180,275.430 44.000,276.200 44.000 C 276.970 44.000,277.600 43.820,277.600 43.600 C 277.600 43.380,278.320 43.200,279.200 43.200 C 280.080 43.200,280.800 43.020,280.800 42.800 C 280.800 42.580,281.520 42.400,282.400 42.400 C 283.280 42.400,284.000 42.231,284.000 42.024 C 284.000 41.818,285.260 41.524,286.800 41.373 C 288.340 41.221,289.600 40.940,289.600 40.748 C 289.600 40.557,290.230 40.400,291.000 40.400 C 291.770 40.400,292.400 40.220,292.400 40.000 C 292.400 39.780,293.120 39.600,294.000 39.600 C 294.880 39.600,295.600 39.420,295.600 39.200 C 295.600 38.980,296.320 38.800,297.200 38.800 C 298.080 38.800,298.800 38.620,298.800 38.400 C 298.800 38.180,299.520 38.000,300.400 38.000 C 301.280 38.000,302.000 37.820,302.000 37.600 C 302.000 37.380,302.720 37.200,303.600 37.200 C 304.480 37.200,305.200 37.020,305.200 36.800 C 305.200 36.580,305.740 36.400,306.400 36.400 C 307.060 36.400,307.600 36.220,307.600 36.000 C 307.600 35.780,308.230 35.600,309.000 35.600 C 309.770 35.600,310.400 35.420,310.400 35.200 C 310.400 34.980,311.120 34.800,312.000 34.800 C 312.880 34.800,313.600 34.620,313.600 34.400 C 313.600 33.793,315.579 33.922,316.229 34.571 C 316.640 34.983,316.800 36.160,316.800 38.771 C 316.800 40.924,316.963 42.400,317.200 42.400 C 317.440 42.400,317.600 44.000,317.600 46.400 C 317.600 48.800,317.760 50.400,318.000 50.400 C 318.237 50.400,318.400 51.867,318.400 54.000 C 318.400 56.133,318.563 57.600,318.800 57.600 C 319.039 57.600,319.200 59.133,319.200 61.400 C 319.200 63.667,319.361 65.200,319.600 65.200 C 319.840 65.200,320.000 66.800,320.000 69.200 C 320.000 71.600,320.160 73.200,320.400 73.200 C 320.639 73.200,320.800 74.733,320.800 77.000 C 320.800 79.267,320.961 80.800,321.200 80.800 C 321.440 80.800,321.600 82.400,321.600 84.800 C 321.600 87.200,321.760 88.800,322.000 88.800 C 322.220 88.800,322.400 89.610,322.400 90.600 C 322.400 92.471,322.049 92.823,321.200 91.800 C 320.926 91.470,320.404 91.200,320.039 91.200 C 319.675 91.200,319.117 90.840,318.800 90.400 C 318.483 89.960,317.943 89.600,317.600 89.600 C 317.257 89.600,316.717 89.240,316.400 88.800 C 316.083 88.360,315.575 88.000,315.272 88.000 C 314.969 88.000,314.217 87.460,313.600 86.800 C 312.983 86.140,312.231 85.600,311.928 85.600 C 311.625 85.600,311.117 85.240,310.800 84.800 C 310.483 84.360,309.903 84.000,309.512 84.000 C 309.120 84.000,308.800 83.820,308.800 83.600 C 308.800 83.371,307.596 83.200,305.989 83.200 C 303.186 83.200,299.600 85.461,299.600 87.229 C 299.600 87.477,299.060 88.183,298.400 88.800 C 297.740 89.417,297.200 90.209,297.200 90.560 C 297.200 90.912,297.065 91.203,296.900 91.206 C 296.390 91.217,294.000 93.479,294.000 93.952 C 294.000 94.197,293.370 95.066,292.600 95.882 C 291.830 96.699,291.200 97.611,291.200 97.909 C 291.200 98.208,290.300 99.329,289.200 100.400 C 288.100 101.471,287.200 102.548,287.200 102.793 C 287.200 103.038,285.940 104.481,284.400 106.000 C 282.860 107.519,281.600 109.040,281.600 109.381 C 281.600 109.721,281.442 110.000,281.250 110.000 C 280.905 110.000,279.750 111.138,270.590 120.500 C 268.061 123.085,265.813 125.200,265.596 125.200 C 265.378 125.200,265.200 125.481,265.200 125.824 C 265.200 126.167,265.020 126.336,264.800 126.200 C 264.580 126.064,264.400 126.160,264.400 126.412 C 264.400 126.992,262.775 128.369,262.069 128.387 C 261.561 128.399,259.749 130.176,257.600 132.770 C 257.050 133.433,256.361 133.981,256.069 133.988 C 255.776 133.995,254.846 134.720,254.000 135.600 C 253.154 136.480,252.257 137.200,252.005 137.200 C 251.754 137.200,250.671 138.100,249.600 139.200 C 248.529 140.300,247.413 141.200,247.122 141.200 C 246.830 141.200,246.107 141.650,245.513 142.200 C 244.920 142.750,244.223 143.200,243.964 143.200 C 243.448 143.200,242.000 144.720,242.000 145.261 C 242.000 145.448,241.712 145.600,241.360 145.600 C 241.009 145.600,240.217 146.140,239.600 146.800 C 238.983 147.460,238.231 148.000,237.928 148.000 C 237.625 148.000,237.117 148.360,236.800 148.800 C 236.483 149.240,235.943 149.600,235.600 149.600 C 235.257 149.600,234.717 149.960,234.400 150.400 C 234.083 150.840,233.543 151.200,233.200 151.200 C 232.857 151.200,232.317 151.560,232.000 152.000 C 231.683 152.440,231.143 152.800,230.800 152.800 C 230.457 152.800,229.917 153.160,229.600 153.600 C 229.283 154.040,228.743 154.400,228.400 154.400 C 228.057 154.400,227.517 154.760,227.200 155.200 C 226.883 155.640,226.315 156.000,225.939 156.000 C 225.562 156.000,225.140 156.360,225.000 156.800 C 224.860 157.240,224.438 157.600,224.061 157.600 C 223.685 157.600,223.134 157.937,222.837 158.349 C 222.515 158.796,221.995 159.019,221.548 158.902 C 221.137 158.795,220.800 158.908,220.800 159.153 C 220.800 159.399,220.480 159.600,220.088 159.600 C 219.697 159.600,219.117 159.960,218.800 160.400 C 218.483 160.840,217.903 161.200,217.512 161.200 C 217.120 161.200,216.800 161.380,216.800 161.600 C 216.800 161.820,216.480 162.000,216.088 162.000 C 215.697 162.000,215.117 162.360,214.800 162.800 C 214.483 163.240,213.903 163.600,213.512 163.600 C 213.120 163.600,212.800 163.780,212.800 164.000 C 212.800 164.220,212.440 164.400,212.000 164.400 C 211.560 164.400,211.200 164.580,211.200 164.800 C 211.200 165.020,210.917 165.200,210.571 165.200 C 209.826 165.200,208.731 166.197,209.086 166.552 C 209.222 166.689,208.943 166.800,208.467 166.800 C 207.990 166.800,207.600 166.980,207.600 167.200 C 207.600 167.420,207.240 167.600,206.800 167.600 C 206.360 167.600,206.000 167.780,206.000 168.000 C 206.000 168.220,205.640 168.400,205.200 168.400 C 204.760 168.400,204.400 168.580,204.400 168.800 C 204.400 169.020,204.040 169.200,203.600 169.200 C 203.160 169.200,202.800 169.380,202.800 169.600 C 202.800 169.820,202.440 170.000,202.000 170.000 C 201.560 170.000,201.200 170.180,201.200 170.400 C 201.200 170.620,200.840 170.800,200.400 170.800 C 199.960 170.800,199.600 170.980,199.600 171.200 C 199.600 171.420,199.240 171.600,198.800 171.600 C 198.360 171.600,198.000 171.780,198.000 172.000 C 198.000 172.220,197.640 172.400,197.200 172.400 C 196.760 172.400,196.400 172.580,196.400 172.800 C 196.400 173.020,196.040 173.200,195.600 173.200 C 195.160 173.200,194.800 173.380,194.800 173.600 C 194.800 173.820,194.440 174.000,194.000 174.000 C 193.560 174.000,193.200 174.172,193.200 174.382 C 193.200 174.592,192.570 174.882,191.800 175.026 C 191.030 175.171,190.400 175.449,190.400 175.645 C 190.400 175.840,190.040 176.000,189.600 176.000 C 189.160 176.000,188.800 176.180,188.800 176.400 C 188.800 176.620,188.260 176.800,187.600 176.800 C 186.940 176.800,186.400 176.980,186.400 177.200 C 186.400 177.420,186.040 177.600,185.600 177.600 C 185.160 177.600,184.800 177.780,184.800 178.000 C 184.800 178.220,184.440 178.400,184.000 178.400 C 183.560 178.400,183.200 178.580,183.200 178.800 C 183.200 179.020,182.840 179.200,182.400 179.200 C 181.960 179.200,181.600 179.380,181.600 179.600 C 181.600 179.820,181.060 180.000,180.400 180.000 C 179.740 180.000,179.200 180.180,179.200 180.400 C 179.200 180.620,178.840 180.800,178.400 180.800 C 177.960 180.800,177.600 180.980,177.600 181.200 C 177.600 181.420,177.060 181.600,176.400 181.600 C 175.740 181.600,175.200 181.780,175.200 182.000 C 175.200 182.220,174.930 182.400,174.600 182.400 C 174.270 182.400,174.000 182.580,174.000 182.800 C 174.000 183.020,173.640 183.200,173.200 183.200 C 172.760 183.200,172.400 183.380,172.400 183.600 C 172.400 183.820,171.860 184.000,171.200 184.000 C 170.540 184.000,170.000 184.180,170.000 184.400 C 170.000 184.620,169.460 184.800,168.800 184.800 C 168.140 184.800,167.600 184.980,167.600 185.200 C 167.600 185.420,167.240 185.600,166.800 185.600 C 166.360 185.600,166.000 185.780,166.000 186.000 C 166.000 186.220,165.460 186.400,164.800 186.400 C 164.140 186.400,163.600 186.580,163.600 186.800 C 163.600 187.020,163.060 187.200,162.400 187.200 C 161.740 187.200,161.200 187.380,161.200 187.600 C 161.200 187.820,160.660 188.000,160.000 188.000 C 159.340 188.000,158.800 188.180,158.800 188.400 C 158.800 188.620,158.350 188.800,157.800 188.800 C 157.250 188.800,156.800 188.980,156.800 189.200 C 156.800 189.420,156.260 189.600,155.600 189.600 C 154.940 189.600,154.400 189.780,154.400 190.000 C 154.400 190.220,153.860 190.400,153.200 190.400 C 152.540 190.400,152.000 190.559,152.000 190.754 C 152.000 190.949,151.013 191.231,149.806 191.382 C 148.600 191.533,147.509 191.823,147.383 192.028 C 147.256 192.233,146.443 192.400,145.576 192.400 C 144.709 192.400,144.000 192.580,144.000 192.800 C 144.000 193.020,143.561 193.200,143.024 193.200 C 142.487 193.200,141.936 193.380,141.800 193.600 C 141.664 193.820,140.933 194.000,140.176 194.000 C 139.419 194.000,138.800 194.180,138.800 194.400 C 138.800 194.620,138.260 194.800,137.600 194.800 C 136.940 194.800,136.400 194.980,136.400 195.200 C 136.400 195.420,135.680 195.600,134.800 195.600 C 133.920 195.600,133.200 195.780,133.200 196.000 C 133.200 196.220,132.480 196.400,131.600 196.400 C 130.720 196.400,130.000 196.580,130.000 196.800 C 130.000 197.020,129.280 197.200,128.400 197.200 C 127.520 197.200,126.800 197.380,126.800 197.600 C 126.800 197.820,126.170 198.000,125.400 198.000 C 124.630 198.000,124.000 198.180,124.000 198.400 C 124.000 198.620,123.100 198.800,122.000 198.800 C 120.900 198.800,120.000 198.980,120.000 199.200 C 120.000 199.420,119.280 199.600,118.400 199.600 C 117.520 199.600,116.800 199.780,116.800 200.000 C 116.800 200.220,115.900 200.400,114.800 200.400 C 113.700 200.400,112.800 200.580,112.800 200.800 C 112.800 201.020,111.900 201.200,110.800 201.200 C 109.700 201.200,108.800 201.380,108.800 201.600 C 108.800 201.820,107.990 202.000,107.000 202.000 C 106.010 202.000,105.200 202.180,105.200 202.400 C 105.200 202.622,104.133 202.800,102.800 202.800 C 101.467 202.800,100.400 202.978,100.400 203.200 C 100.400 203.429,99.200 203.600,97.600 203.600 C 96.000 203.600,94.800 203.771,94.800 204.000 C 94.800 204.220,93.810 204.400,92.600 204.400 C 91.390 204.400,90.400 204.580,90.400 204.800 C 90.400 205.033,89.067 205.200,87.200 205.200 C 85.333 205.200,84.000 205.367,84.000 205.600 C 84.000 205.837,82.533 206.000,80.400 206.000 C 78.267 206.000,76.800 206.163,76.800 206.400 C 76.800 206.639,75.267 206.800,73.000 206.800 C 70.733 206.800,69.200 206.961,69.200 207.200 C 69.200 207.437,67.733 207.600,65.600 207.600 C 63.467 207.600,62.000 207.437,62.000 207.200 C 62.000 206.980,62.360 206.800,62.800 206.800 C 63.240 206.800,63.600 206.620,63.600 206.400 C 63.600 206.180,64.140 206.000,64.800 206.000 C 65.460 206.000,66.000 205.820,66.000 205.600 C 66.000 205.380,66.540 205.200,67.200 205.200 C 67.860 205.200,68.400 205.020,68.400 204.800 C 68.400 204.580,68.940 204.400,69.600 204.400 C 70.260 204.400,70.800 204.220,70.800 204.000 C 70.800 203.780,71.340 203.600,72.000 203.600 C 72.660 203.600,73.200 203.420,73.200 203.200 C 73.200 202.980,73.830 202.800,74.600 202.800 C 75.370 202.800,76.000 202.620,76.000 202.400 C 76.000 202.180,76.360 202.000,76.800 202.000 C 77.240 202.000,77.600 201.820,77.600 201.600 C 77.600 201.380,78.140 201.200,78.800 201.200 C 79.460 201.200,80.000 201.020,80.000 200.800 C 80.000 200.580,80.540 200.400,81.200 200.400 C 81.860 200.400,82.400 200.220,82.400 200.000 C 82.400 199.780,82.940 199.600,83.600 199.600 C 84.260 199.600,84.800 199.420,84.800 199.200 C 84.800 198.980,85.340 198.800,86.000 198.800 C 86.660 198.800,87.200 198.620,87.200 198.400 C 87.200 198.180,87.740 198.000,88.400 198.000 C 89.060 198.000,89.600 197.820,89.600 197.600 C 89.600 197.380,89.960 197.200,90.400 197.200 C 90.840 197.200,91.200 197.020,91.200 196.800 C 91.200 196.580,91.650 196.400,92.200 196.400 C 92.750 196.400,93.200 196.220,93.200 196.000 C 93.200 195.780,93.740 195.600,94.400 195.600 C 95.060 195.600,95.600 195.420,95.600 195.200 C 95.600 194.980,96.140 194.800,96.800 194.800 C 97.460 194.800,98.000 194.620,98.000 194.400 C 98.000 194.180,98.360 194.000,98.800 194.000 C 99.240 194.000,99.600 193.820,99.600 193.600 C 99.600 193.380,100.140 193.200,100.800 193.200 C 101.460 193.200,102.000 193.020,102.000 192.800 C 102.000 192.580,102.360 192.400,102.800 192.400 C 103.240 192.400,103.600 192.220,103.600 192.000 C 103.600 191.780,104.095 191.599,104.700 191.598 C 105.305 191.596,106.316 191.326,106.946 190.998 C 107.576 190.669,108.431 190.400,108.846 190.400 C 109.261 190.400,109.600 190.220,109.600 190.000 C 109.600 189.780,109.960 189.600,110.400 189.600 C 110.840 189.600,111.200 189.420,111.200 189.200 C 111.200 188.980,111.740 188.800,112.400 188.800 C 113.060 188.800,113.600 188.620,113.600 188.400 C 113.600 188.180,113.960 188.000,114.400 188.000 C 114.840 188.000,115.200 187.820,115.200 187.600 C 115.200 187.380,115.740 187.200,116.400 187.200 C 117.060 187.200,117.600 187.020,117.600 186.800 C 117.600 186.580,117.960 186.400,118.400 186.400 C 118.840 186.400,119.200 186.220,119.200 186.000 C 119.200 185.780,119.560 185.600,120.000 185.600 C 120.440 185.600,120.800 185.420,120.800 185.200 C 120.800 184.980,121.340 184.800,122.000 184.800 C 122.660 184.800,123.200 184.620,123.200 184.400 C 123.200 184.180,123.560 184.000,124.000 184.000 C 124.440 184.000,124.800 183.820,124.800 183.600 C 124.800 183.380,125.070 183.200,125.400 183.200 C 125.730 183.200,126.000 183.020,126.000 182.800 C 126.000 182.580,126.360 182.400,126.800 182.400 C 127.240 182.400,127.600 182.220,127.600 182.000 C 127.600 181.780,127.960 181.600,128.400 181.600 C 128.840 181.600,129.200 181.420,129.200 181.200 C 129.200 180.980,129.740 180.800,130.400 180.800 C 131.060 180.800,131.600 180.620,131.600 180.400 C 131.600 180.180,131.960 180.000,132.400 180.000 C 132.840 180.000,133.200 179.820,133.200 179.600 C 133.200 179.380,133.560 179.200,134.000 179.200 C 134.440 179.200,134.800 179.020,134.800 178.800 C 134.800 178.580,135.160 178.400,135.600 178.400 C 136.040 178.400,136.400 178.220,136.400 178.000 C 136.400 177.780,136.760 177.600,137.200 177.600 C 137.640 177.600,138.000 177.420,138.000 177.200 C 138.000 176.980,138.360 176.800,138.800 176.800 C 139.240 176.800,139.600 176.620,139.600 176.400 C 139.600 176.180,139.960 176.000,140.400 176.000 C 140.840 176.000,141.200 175.828,141.200 175.618 C 141.200 175.408,141.830 175.118,142.600 174.974 C 143.370 174.829,144.000 174.551,144.000 174.355 C 144.000 174.160,144.360 174.000,144.800 174.000 C 145.240 174.000,145.600 173.820,145.600 173.600 C 145.600 173.380,145.960 173.200,146.400 173.200 C 146.840 173.200,147.200 173.020,147.200 172.800 C 147.200 172.580,147.560 172.400,148.000 172.400 C 148.440 172.400,148.800 172.220,148.800 172.000 C 148.800 171.780,149.160 171.600,149.600 171.600 C 150.040 171.600,150.400 171.420,150.400 171.200 C 150.400 170.980,150.760 170.800,151.200 170.800 C 151.640 170.800,152.000 170.620,152.000 170.400 C 152.000 170.180,152.360 170.000,152.800 170.000 C 153.240 170.000,153.600 169.820,153.600 169.600 C 153.600 169.380,153.960 169.200,154.400 169.200 C 154.840 169.200,155.200 169.020,155.200 168.800 C 155.200 168.580,155.560 168.400,156.000 168.400 C 156.440 168.400,156.800 168.220,156.800 168.000 C 156.800 167.780,157.148 167.600,157.573 167.600 C 157.998 167.600,158.460 167.240,158.600 166.800 C 158.740 166.360,159.202 166.000,159.627 166.000 C 160.052 166.000,160.400 165.820,160.400 165.600 C 160.400 165.380,160.760 165.200,161.200 165.200 C 161.640 165.200,162.000 165.020,162.000 164.800 C 162.000 164.580,162.360 164.400,162.800 164.400 C 163.240 164.400,163.600 164.220,163.600 164.000 C 163.600 163.780,163.920 163.600,164.312 163.600 C 164.703 163.600,165.283 163.240,165.600 162.800 C 165.917 162.360,166.497 162.000,166.888 162.000 C 167.280 162.000,167.600 161.820,167.600 161.600 C 167.600 161.380,167.960 161.200,168.400 161.200 C 168.840 161.200,169.200 161.020,169.200 160.800 C 169.200 160.580,169.494 160.400,169.853 160.400 C 170.212 160.400,170.797 160.064,171.153 159.654 C 171.509 159.243,172.394 158.777,173.119 158.618 C 173.845 158.458,174.653 157.984,174.915 157.564 C 175.178 157.144,175.669 156.800,176.008 156.800 C 176.346 156.800,176.883 156.440,177.200 156.000 C 177.517 155.560,178.097 155.200,178.488 155.200 C 178.880 155.200,179.200 155.020,179.200 154.800 C 179.200 154.580,179.520 154.400,179.912 154.400 C 180.303 154.400,180.883 154.040,181.200 153.600 C 181.517 153.160,182.057 152.800,182.400 152.800 C 182.743 152.800,183.283 152.440,183.600 152.000 C 183.917 151.560,184.497 151.200,184.888 151.200 C 185.280 151.200,185.600 151.020,185.600 150.800 C 185.600 150.580,185.920 150.400,186.312 150.400 C 186.703 150.400,187.283 150.040,187.600 149.600 C 187.917 149.160,188.457 148.800,188.800 148.800 C 189.143 148.800,189.683 148.440,190.000 148.000 C 190.317 147.560,190.735 147.200,190.928 147.200 C 191.121 147.200,191.783 146.660,192.400 146.000 C 193.017 145.340,193.769 144.800,194.072 144.800 C 194.375 144.800,194.883 144.440,195.200 144.000 C 195.517 143.560,196.057 143.200,196.400 143.200 C 196.743 143.200,197.283 142.840,197.600 142.400 C 197.917 141.960,198.489 141.600,198.870 141.600 C 199.252 141.600,200.014 141.150,200.564 140.600 C 201.114 140.050,201.802 139.600,202.094 139.600 C 202.385 139.600,202.883 139.240,203.200 138.800 C 203.517 138.360,204.025 138.000,204.328 138.000 C 204.631 138.000,205.383 137.460,206.000 136.800 C 206.617 136.140,207.409 135.600,207.760 135.600 C 208.112 135.600,208.400 135.439,208.400 135.242 C 208.400 134.693,210.659 132.400,211.200 132.400 C 211.463 132.400,212.183 131.860,212.800 131.200 C 213.417 130.540,214.133 130.000,214.392 130.000 C 214.651 130.000,215.554 129.280,216.400 128.400 C 217.246 127.520,218.140 126.800,218.387 126.800 C 218.634 126.800,219.264 126.395,219.786 125.900 C 220.309 125.405,221.650 124.127,222.768 123.061 L 224.800 121.121 224.800 118.161 C 224.800 116.454,224.631 115.200,224.400 115.200 C 224.180 115.200,224.000 114.917,224.000 114.571 C 224.000 113.763,223.037 112.800,222.229 112.800 C 221.883 112.800,221.600 112.620,221.600 112.400 C 221.600 112.180,221.240 112.000,220.800 112.000 C 220.360 112.000,220.000 111.820,220.000 111.600 C 220.000 111.380,219.100 111.200,218.000 111.200 C 216.900 111.200,216.000 111.380,216.000 111.600 C 216.000 111.820,215.712 112.000,215.360 112.000 C 215.009 112.000,214.217 112.540,213.600 113.200 C 212.983 113.860,212.267 114.400,212.008 114.400 C 211.464 114.400,208.400 117.485,208.400 118.033 C 208.400 118.235,208.112 118.400,207.760 118.400 C 207.409 118.400,206.617 118.940,206.000 119.600 C 205.383 120.260,204.667 120.800,204.408 120.800 C 204.149 120.800,203.246 121.520,202.400 122.400 C 201.554 123.280,200.656 124.000,200.403 124.000 C 200.150 124.000,199.692 124.225,199.385 124.500 C 198.021 125.723,197.601 126.000,197.105 126.000 C 196.814 126.000,196.317 126.360,196.000 126.800 C 195.683 127.240,195.175 127.600,194.872 127.600 C 194.569 127.600,193.817 128.140,193.200 128.800 C 192.583 129.460,191.921 130.000,191.728 130.000 C 191.535 130.000,191.117 130.360,190.800 130.800 C 190.483 131.240,189.975 131.600,189.672 131.600 C 189.369 131.600,188.617 132.140,188.000 132.800 C 187.383 133.460,186.631 134.000,186.328 134.000 C 186.025 134.000,185.517 134.360,185.200 134.800 C 184.883 135.240,184.343 135.600,184.000 135.600 C 183.657 135.600,183.117 135.960,182.800 136.400 C 182.483 136.840,181.943 137.200,181.600 137.200 C 181.257 137.200,180.717 137.560,180.400 138.000 C 180.083 138.440,179.543 138.800,179.200 138.800 C 178.857 138.800,178.317 139.160,178.000 139.600 C 177.683 140.040,177.103 140.400,176.712 140.400 C 176.320 140.400,176.000 140.580,176.000 140.800 C 176.000 141.020,175.752 141.200,175.449 141.200 C 175.146 141.200,174.674 141.470,174.400 141.800 C 174.126 142.130,173.604 142.400,173.239 142.400 C 172.875 142.400,172.317 142.760,172.000 143.200 C 171.683 143.640,171.103 144.000,170.712 144.000 C 170.320 144.000,170.000 144.180,170.000 144.400 C 170.000 144.620,169.680 144.800,169.288 144.800 C 168.897 144.800,168.317 145.160,168.000 145.600 C 167.683 146.040,167.103 146.400,166.712 146.400 C 166.320 146.400,166.000 146.580,166.000 146.800 C 166.000 147.020,165.680 147.200,165.288 147.200 C 164.897 147.200,164.317 147.560,164.000 148.000 C 163.683 148.440,163.103 148.800,162.712 148.800 C 162.320 148.800,162.000 148.980,162.000 149.200 C 162.000 149.420,161.640 149.600,161.200 149.600 C 160.760 149.600,160.400 149.780,160.400 150.000 C 160.400 150.220,160.052 150.400,159.627 150.400 C 159.202 150.400,158.740 150.760,158.600 151.200 C 158.460 151.640,157.998 152.000,157.573 152.000 C 157.148 152.000,156.800 152.180,156.800 152.400 C 156.800 152.620,156.440 152.800,156.000 152.800 C 155.560 152.800,155.200 152.980,155.200 153.200 C 155.200 153.420,154.840 153.600,154.400 153.600 C 153.960 153.600,153.600 153.780,153.600 154.000 C 153.600 154.220,153.240 154.400,152.800 154.400 C 152.360 154.400,152.000 154.580,152.000 154.800 C 152.000 155.020,151.680 155.200,151.288 155.200 C 150.897 155.200,150.317 155.560,150.000 156.000 C 149.683 156.440,149.103 156.800,148.712 156.800 C 148.320 156.800,148.000 156.980,148.000 157.200 C 148.000 157.420,147.640 157.600,147.200 157.600 C 146.760 157.600,146.400 157.780,146.400 158.000 C 146.400 158.220,146.103 158.400,145.740 158.400 C 144.963 158.400,140.661 160.428,140.467 160.885 C 140.393 161.058,139.988 161.200,139.567 161.200 C 139.145 161.200,138.800 161.380,138.800 161.600 C 138.800 161.820,138.440 162.000,138.000 162.000 C 137.560 162.000,137.200 162.180,137.200 162.400 C 137.200 162.620,136.840 162.800,136.400 162.800 C 135.960 162.800,135.600 162.980,135.600 163.200 C 135.600 163.420,135.240 163.600,134.800 163.600 C 134.360 163.600,134.000 163.780,134.000 164.000 C 134.000 164.220,133.640 164.400,133.200 164.400 C 132.760 164.400,132.400 164.580,132.400 164.800 C 132.400 165.020,132.040 165.200,131.600 165.200 C 131.160 165.200,130.800 165.380,130.800 165.600 C 130.800 165.820,130.440 166.000,130.000 166.000 C 129.560 166.000,129.200 166.180,129.200 166.400 C 129.200 166.620,128.840 166.800,128.400 166.800 C 127.960 166.800,127.600 166.980,127.600 167.200 C 127.600 167.420,127.060 167.600,126.400 167.600 C 125.740 167.600,125.200 167.780,125.200 168.000 C 125.200 168.220,124.930 168.400,124.600 168.400 C 124.270 168.400,124.000 168.580,124.000 168.800 C 124.000 169.020,123.640 169.200,123.200 169.200 C 122.760 169.200,122.400 169.380,122.400 169.600 C 122.400 169.820,122.040 170.000,121.600 170.000 C 121.160 170.000,120.800 170.180,120.800 170.400 C 120.800 170.620,120.440 170.800,120.000 170.800 C 119.560 170.800,119.200 170.980,119.200 171.200 C 119.200 171.420,118.660 171.600,118.000 171.600 C 117.340 171.600,116.800 171.780,116.800 172.000 C 116.800 172.220,116.440 172.400,116.000 172.400 C 115.560 172.400,115.200 172.580,115.200 172.800 C 115.200 173.020,114.840 173.200,114.400 173.200 C 113.960 173.200,113.600 173.380,113.600 173.600 C 113.600 173.820,113.060 174.000,112.400 174.000 C 111.740 174.000,111.200 174.160,111.200 174.355 C 111.200 174.551,110.570 174.829,109.800 174.974 C 109.030 175.118,108.400 175.408,108.400 175.618 C 108.400 175.828,107.860 176.000,107.200 176.000 C 106.540 176.000,106.000 176.180,106.000 176.400 C 106.000 176.620,105.640 176.800,105.200 176.800 C 104.760 176.800,104.400 176.980,104.400 177.200 C 104.400 177.420,103.860 177.600,103.200 177.600 C 102.540 177.600,102.000 177.780,102.000 178.000 C 102.000 178.220,101.640 178.400,101.200 178.400 C 100.760 178.400,100.400 178.580,100.400 178.800 C 100.400 179.020,99.860 179.200,99.200 179.200 C 98.540 179.200,98.000 179.380,98.000 179.600 C 98.000 179.820,97.640 180.000,97.200 180.000 C 96.760 180.000,96.400 180.180,96.400 180.400 C 96.400 180.620,95.860 180.800,95.200 180.800 C 94.540 180.800,94.000 180.980,94.000 181.200 C 94.000 181.420,93.676 181.600,93.280 181.600 C 92.386 181.600,90.407 182.494,90.403 182.900 C 90.401 183.065,89.860 183.200,89.200 183.200 C 88.540 183.200,88.000 183.380,88.000 183.600 C 88.000 183.820,87.460 184.000,86.800 184.000 C 86.140 184.000,85.600 184.180,85.600 184.400 C 85.600 184.620,85.060 184.800,84.400 184.800 C 83.740 184.800,83.200 184.980,83.200 185.200 C 83.200 185.420,82.840 185.600,82.400 185.600 C 81.960 185.600,81.600 185.780,81.600 186.000 C 81.600 186.220,81.060 186.400,80.400 186.400 C 79.740 186.400,79.200 186.580,79.200 186.800 C 79.200 187.020,78.660 187.200,78.000 187.200 C 77.340 187.200,76.800 187.380,76.800 187.600 C 76.800 187.820,76.350 188.000,75.800 188.000 C 75.250 188.000,74.800 188.180,74.800 188.400 C 74.800 188.620,74.260 188.800,73.600 188.800 C 72.940 188.800,72.400 188.980,72.400 189.200 C 72.400 189.420,71.860 189.600,71.200 189.600 C 70.540 189.600,70.000 189.780,70.000 190.000 C 70.000 190.220,69.460 190.400,68.800 190.400 C 68.140 190.400,67.600 190.559,67.600 190.754 C 67.600 190.949,66.613 191.231,65.406 191.382 C 64.200 191.533,63.109 191.823,62.983 192.028 C 62.856 192.233,62.324 192.400,61.800 192.400 C 61.276 192.400,60.736 192.580,60.600 192.800 C 60.464 193.020,59.913 193.200,59.376 193.200 C 58.839 193.200,58.400 193.380,58.400 193.600 C 58.400 193.820,57.900 194.000,57.288 194.000 C 56.635 194.000,55.939 194.330,55.600 194.800 C 55.283 195.240,54.787 195.600,54.498 195.600 C 53.769 195.600,51.200 198.238,51.200 198.987 C 51.200 199.324,51.020 199.600,50.800 199.600 C 50.580 199.600,50.400 199.960,50.400 200.400 C 50.400 200.840,50.220 201.200,50.000 201.200 C 49.780 201.200,49.600 201.560,49.600 202.000 C 49.600 202.440,49.420 202.800,49.200 202.800 C 48.959 202.800,48.800 204.467,48.800 207.000 C 48.800 209.533,48.959 211.200,49.200 211.200 C 49.420 211.200,49.600 211.560,49.600 212.000 C 49.600 212.440,49.780 212.800,50.000 212.800 C 50.220 212.800,50.400 213.160,50.400 213.600 C 50.400 214.040,50.580 214.400,50.800 214.400 C 51.020 214.400,51.200 214.676,51.200 215.013 C 51.200 215.762,53.769 218.400,54.498 218.400 C 54.787 218.400,55.283 218.760,55.600 219.200 C 55.917 219.640,56.497 220.000,56.888 220.000 C 57.280 220.000,57.600 220.180,57.600 220.400 C 57.600 220.620,58.590 220.800,59.800 220.800 C 61.010 220.800,62.000 220.980,62.000 221.200 C 62.000 221.420,62.540 221.600,63.200 221.600 C 63.860 221.600,64.400 221.420,64.400 221.200 C 64.400 220.956,66.267 220.800,69.200 220.800 C 72.133 220.800,74.000 220.644,74.000 220.400 C 74.000 220.161,75.533 220.000,77.800 220.000 C 80.067 220.000,81.600 219.839,81.600 219.600 C 81.600 219.367,82.933 219.200,84.800 219.200 C 86.667 219.200,88.000 219.033,88.000 218.800 C 88.000 218.574,89.133 218.400,90.600 218.400 C 92.067 218.400,93.200 218.226,93.200 218.000 C 93.200 217.771,94.400 217.600,96.000 217.600 C 97.600 217.600,98.800 217.429,98.800 217.200 C 98.800 216.978,99.867 216.800,101.200 216.800 C 102.533 216.800,103.600 216.622,103.600 216.400 C 103.600 216.178,104.667 216.000,106.000 216.000 C 107.333 216.000,108.400 215.822,108.400 215.600 C 108.400 215.380,109.210 215.200,110.200 215.200 C 111.190 215.200,112.000 215.020,112.000 214.800 C 112.000 214.580,112.900 214.400,114.000 214.400 C 115.100 214.400,116.000 214.220,116.000 214.000 C 116.000 213.780,116.900 213.600,118.000 213.600 C 119.100 213.600,120.000 213.420,120.000 213.200 C 120.000 212.980,120.900 212.800,122.000 212.800 C 123.100 212.800,124.000 212.620,124.000 212.400 C 124.000 212.180,124.630 212.000,125.400 212.000 C 126.170 212.000,126.800 211.820,126.800 211.600 C 126.800 211.380,127.520 211.200,128.400 211.200 C 129.280 211.200,130.000 211.020,130.000 210.800 C 130.000 210.580,130.900 210.400,132.000 210.400 C 133.100 210.400,134.000 210.220,134.000 210.000 C 134.000 209.780,134.540 209.600,135.200 209.600 C 135.860 209.600,136.400 209.441,136.400 209.247 C 136.400 209.053,137.750 208.767,139.400 208.613 C 141.050 208.458,142.400 208.167,142.400 207.966 C 142.400 207.765,142.940 207.600,143.600 207.600 C 144.260 207.600,144.800 207.420,144.800 207.200 C 144.800 206.980,145.520 206.800,146.400 206.800 C 147.280 206.800,148.000 206.620,148.000 206.400 C 148.000 206.180,148.540 206.000,149.200 206.000 C 149.860 206.000,150.400 205.820,150.400 205.600 C 150.400 205.380,151.120 205.200,152.000 205.200 C 152.880 205.200,153.600 205.020,153.600 204.800 C 153.600 204.580,154.140 204.400,154.800 204.400 C 155.460 204.400,156.000 204.220,156.000 204.000 C 156.000 203.780,156.540 203.600,157.200 203.600 C 157.860 203.600,158.400 203.420,158.400 203.200 C 158.400 202.980,158.850 202.800,159.400 202.800 C 159.950 202.800,160.400 202.620,160.400 202.400 C 160.400 202.180,160.940 202.000,161.600 202.000 C 162.260 202.000,162.800 201.820,162.800 201.600 C 162.800 201.380,163.340 201.200,164.000 201.200 C 164.660 201.200,165.200 201.020,165.200 200.800 C 165.200 200.580,165.560 200.400,166.000 200.400 C 166.440 200.400,166.800 200.220,166.800 200.000 C 166.800 199.780,167.340 199.600,168.000 199.600 C 168.660 199.600,169.200 199.420,169.200 199.200 C 169.200 198.980,169.740 198.800,170.400 198.800 C 171.060 198.800,171.600 198.620,171.600 198.400 C 171.600 198.180,172.140 198.000,172.800 198.000 C 173.460 198.000,174.000 197.820,174.000 197.600 C 174.000 197.380,174.270 197.200,174.600 197.200 C 174.930 197.200,175.200 197.020,175.200 196.800 C 175.200 196.580,175.740 196.400,176.400 196.400 C 177.060 196.400,177.600 196.220,177.600 196.000 C 177.600 195.780,177.960 195.600,178.400 195.600 C 178.840 195.600,179.200 195.420,179.200 195.200 C 179.200 194.980,179.740 194.800,180.400 194.800 C 181.060 194.800,181.600 194.620,181.600 194.400 C 181.600 194.180,181.960 194.000,182.400 194.000 C 182.840 194.000,183.200 193.820,183.200 193.600 C 183.200 193.380,183.740 193.200,184.400 193.200 C 185.060 193.200,185.600 193.020,185.600 192.800 C 185.600 192.580,185.960 192.400,186.400 192.400 C 186.840 192.400,187.200 192.220,187.200 192.000 C 187.200 191.780,187.515 191.599,187.900 191.598 C 188.285 191.596,189.116 191.326,189.746 190.998 C 190.376 190.669,191.231 190.400,191.646 190.400 C 192.061 190.400,192.400 190.220,192.400 190.000 C 192.400 189.780,192.760 189.600,193.200 189.600 C 193.640 189.600,194.000 189.420,194.000 189.200 C 194.000 188.980,194.360 188.800,194.800 188.800 C 195.240 188.800,195.600 188.620,195.600 188.400 C 195.600 188.180,195.960 188.000,196.400 188.000 C 196.840 188.000,197.200 187.820,197.200 187.600 C 197.200 187.380,197.560 187.200,198.000 187.200 C 198.440 187.200,198.800 187.020,198.800 186.800 C 198.800 186.580,199.160 186.400,199.600 186.400 C 200.040 186.400,200.400 186.220,200.400 186.000 C 200.400 185.780,200.760 185.600,201.200 185.600 C 201.640 185.600,202.000 185.420,202.000 185.200 C 202.000 184.980,202.360 184.800,202.800 184.800 C 203.240 184.800,203.600 184.620,203.600 184.400 C 203.600 184.180,203.960 184.000,204.400 184.000 C 204.840 184.000,205.200 183.820,205.200 183.600 C 205.200 183.380,205.560 183.200,206.000 183.200 C 206.440 183.200,206.800 183.020,206.800 182.800 C 206.800 182.580,207.160 182.400,207.600 182.400 C 208.040 182.400,208.400 182.220,208.400 182.000 C 208.400 181.780,208.670 181.600,209.000 181.600 C 209.330 181.600,209.600 181.420,209.600 181.200 C 209.600 180.980,209.960 180.800,210.400 180.800 C 210.840 180.800,211.200 180.620,211.200 180.400 C 211.200 180.180,211.560 180.000,212.000 180.000 C 212.440 180.000,212.800 179.820,212.800 179.600 C 212.800 179.380,213.160 179.200,213.600 179.200 C 214.040 179.200,214.400 179.020,214.400 178.800 C 214.400 178.580,214.720 178.400,215.112 178.400 C 215.503 178.400,216.083 178.040,216.400 177.600 C 216.717 177.160,217.297 176.800,217.688 176.800 C 218.080 176.800,218.400 176.620,218.400 176.400 C 218.400 176.180,218.760 176.000,219.200 176.000 C 219.640 176.000,220.000 175.820,220.000 175.600 C 220.000 175.380,220.349 175.200,220.776 175.200 C 221.203 175.200,221.661 175.025,221.793 174.811 C 221.926 174.597,222.701 174.111,223.517 173.731 C 224.333 173.351,225.291 172.717,225.647 172.320 C 226.003 171.924,226.588 171.600,226.947 171.600 C 227.306 171.600,227.600 171.420,227.600 171.200 C 227.600 170.980,227.920 170.800,228.312 170.800 C 228.703 170.800,229.283 170.440,229.600 170.000 C 229.917 169.560,230.457 169.200,230.800 169.200 C 231.143 169.200,231.683 168.840,232.000 168.400 C 232.317 167.960,232.857 167.600,233.200 167.600 C 233.543 167.600,234.083 167.240,234.400 166.800 C 234.717 166.360,235.257 166.000,235.600 166.000 C 235.943 166.000,236.483 165.640,236.800 165.200 C 237.117 164.760,237.657 164.400,238.000 164.400 C 238.343 164.400,238.883 164.040,239.200 163.600 C 239.517 163.160,240.085 162.800,240.461 162.800 C 240.838 162.800,241.260 162.440,241.400 162.000 C 241.540 161.560,241.962 161.200,242.339 161.200 C 242.715 161.200,243.283 160.840,243.600 160.400 C 243.917 159.960,244.414 159.600,244.705 159.600 C 245.201 159.600,245.621 159.323,246.985 158.100 C 247.292 157.825,247.753 157.600,248.011 157.600 C 248.268 157.600,248.983 157.060,249.600 156.400 C 250.217 155.740,250.937 155.200,251.200 155.200 C 251.463 155.200,252.183 154.660,252.800 154.000 C 253.417 153.340,254.133 152.800,254.392 152.800 C 254.651 152.800,255.554 152.080,256.400 151.200 C 257.246 150.320,258.053 149.600,258.195 149.600 C 258.336 149.600,259.329 148.700,260.400 147.600 C 261.471 146.500,262.550 145.600,262.796 145.600 C 263.043 145.600,264.274 144.551,265.532 143.270 C 266.789 141.988,268.034 141.011,268.297 141.099 C 268.744 141.248,271.341 138.716,277.600 132.029 C 279.030 130.501,280.433 129.240,280.718 129.225 C 281.396 129.192,283.196 127.383,283.213 126.718 C 283.220 126.433,284.142 125.390,285.262 124.400 C 288.976 121.116,294.000 115.820,294.000 115.189 C 294.000 114.951,295.080 113.696,296.400 112.400 C 297.720 111.104,298.800 109.764,298.800 109.422 C 298.800 109.080,298.965 108.800,299.167 108.800 C 299.711 108.800,302.800 105.739,302.800 105.200 C 302.800 104.946,303.520 104.046,304.400 103.200 C 305.280 102.354,306.000 101.456,306.000 101.203 C 306.000 99.696,308.280 99.124,309.200 100.400 C 309.517 100.840,310.057 101.200,310.400 101.200 C 310.743 101.200,311.283 101.560,311.600 102.000 C 311.917 102.440,312.457 102.800,312.800 102.800 C 313.143 102.800,313.683 103.160,314.000 103.600 C 314.317 104.040,314.825 104.400,315.128 104.400 C 315.431 104.400,316.183 104.940,316.800 105.600 C 317.417 106.260,318.143 106.800,318.414 106.800 C 318.684 106.800,319.197 107.131,319.553 107.536 C 319.909 107.941,320.695 108.394,321.300 108.544 C 321.905 108.693,322.400 108.992,322.400 109.208 C 322.400 109.423,322.694 109.600,323.053 109.600 C 323.710 109.600,325.200 111.030,325.200 111.661 C 325.200 111.848,325.560 112.000,326.000 112.000 C 326.440 112.000,326.800 112.180,326.800 112.400 C 326.800 112.620,327.160 112.800,327.600 112.800 C 328.040 112.800,328.400 112.980,328.400 113.200 C 328.400 113.420,329.300 113.600,330.400 113.600 C 331.500 113.600,332.400 113.420,332.400 113.200 C 332.400 112.980,332.675 112.800,333.011 112.800 C 333.346 112.800,334.426 111.995,335.411 111.011 L 337.200 109.221 337.200 104.811 C 337.200 102.137,337.042 100.400,336.800 100.400 C 336.560 100.400,336.400 98.800,336.400 96.400 C 336.400 94.000,336.240 92.400,336.000 92.400 C 335.761 92.400,335.600 90.867,335.600 88.600 C 335.600 86.333,335.439 84.800,335.200 84.800 C 334.960 84.800,334.800 83.200,334.800 80.800 C 334.800 78.400,334.640 76.800,334.400 76.800 C 334.161 76.800,334.000 75.267,334.000 73.000 C 334.000 70.733,333.839 69.200,333.600 69.200 C 333.360 69.200,333.200 67.600,333.200 65.200 C 333.200 62.800,333.040 61.200,332.800 61.200 C 332.561 61.200,332.400 59.667,332.400 57.400 C 332.400 55.133,332.239 53.600,332.000 53.600 C 331.760 53.600,331.600 52.000,331.600 49.600 C 331.600 47.200,331.440 45.600,331.200 45.600 C 330.965 45.600,330.800 44.200,330.800 42.200 C 330.800 40.200,330.635 38.800,330.400 38.800 C 330.160 38.800,330.000 37.200,330.000 34.800 C 330.000 32.400,329.840 30.800,329.600 30.800 C 329.361 30.800,329.200 29.267,329.200 27.000 C 329.200 24.733,329.039 23.200,328.800 23.200 C 328.580 23.200,328.400 22.924,328.400 22.587 C 328.400 21.901,325.858 19.200,325.213 19.200 C 324.986 19.200,324.800 19.020,324.800 18.800 C 324.800 18.571,323.600 18.400,322.000 18.400 C 320.400 18.400,319.200 18.571,319.200 18.800 " stroke="none" fill="#ff7f27" fill-rule="evenodd"></path><path id="path1" d="M237.660 41.042 C 236.931 41.866,237.400 42.257,238.181 41.476 C 238.521 41.136,238.800 40.754,238.800 40.629 C 238.800 40.209,238.206 40.424,237.660 41.042 M237.200 49.829 C 237.200 50.253,238.436 51.297,238.667 51.067 C 238.792 50.941,238.617 50.560,238.276 50.219 C 237.641 49.584,237.200 49.424,237.200 49.829 M271.600 57.829 C 271.600 58.127,272.675 59.200,272.975 59.200 C 273.102 59.200,272.982 58.840,272.707 58.400 C 272.238 57.649,271.600 57.320,271.600 57.829 M236.089 91.827 C 235.367 92.582,234.943 93.200,235.146 93.200 C 235.561 93.200,238.000 91.011,238.000 90.640 C 238.000 90.110,237.334 90.524,236.089 91.827 M252.060 94.251 C 251.543 94.802,251.227 95.360,251.357 95.491 C 251.619 95.753,253.200 94.079,253.200 93.539 C 253.200 93.069,253.125 93.116,252.060 94.251 M286.093 103.600 C 285.818 104.040,285.698 104.400,285.825 104.400 C 286.125 104.400,287.200 103.327,287.200 103.029 C 287.200 102.520,286.562 102.849,286.093 103.600 M280.582 109.715 C 279.555 110.906,279.528 111.293,280.522 110.568 C 281.544 109.823,281.911 109.184,281.300 109.215 C 281.135 109.224,280.812 109.449,280.582 109.715 M294.860 113.851 C 294.343 114.402,294.019 114.952,294.141 115.074 C 294.362 115.295,294.917 114.812,295.949 113.498 C 296.784 112.435,295.928 112.713,294.860 113.851 M285.228 124.410 C 284.051 125.516,283.194 126.527,283.324 126.657 C 283.537 126.870,287.600 122.990,287.600 122.573 C 287.600 122.227,287.334 122.434,285.228 124.410 M262.808 127.424 C 262.263 127.961,261.993 128.394,262.208 128.387 C 262.664 128.371,264.400 126.984,264.400 126.636 C 264.400 126.162,263.777 126.471,262.808 127.424 M277.773 131.751 C 275.363 134.223,274.565 135.200,274.957 135.200 C 275.235 135.200,280.800 129.694,280.800 129.419 C 280.800 128.848,280.007 129.459,277.773 131.751 M256.460 133.042 C 255.731 133.866,256.200 134.257,256.981 133.476 C 257.321 133.136,257.600 132.754,257.600 132.629 C 257.600 132.209,257.006 132.424,256.460 133.042 M267.260 141.468 C 266.534 142.253,266.825 142.464,267.725 141.806 C 268.122 141.515,268.302 141.188,268.124 141.080 C 267.946 140.972,267.557 141.147,267.260 141.468 M261.700 146.198 C 260.957 147.042,261.094 147.273,262.000 146.707 C 262.440 146.432,262.800 146.071,262.800 145.904 C 262.800 145.427,262.249 145.575,261.700 146.198 M307.600 161.600 C 307.600 161.820,307.240 162.000,306.800 162.000 C 306.360 162.000,306.000 162.180,306.000 162.400 C 306.000 162.620,305.640 162.800,305.200 162.800 C 304.760 162.800,304.400 162.980,304.400 163.200 C 304.400 163.420,304.125 163.600,303.789 163.600 C 303.045 163.600,300.014 166.596,299.232 168.105 C 298.920 168.707,298.515 169.200,298.332 169.200 C 298.150 169.200,298.000 169.740,298.000 170.400 C 298.000 171.060,297.820 171.600,297.600 171.600 C 297.334 171.600,297.200 204.667,297.200 270.000 L 297.200 368.400 288.200 368.400 L 279.200 368.400 279.200 291.000 C 279.200 239.667,279.065 213.600,278.800 213.600 C 278.580 213.600,278.400 213.240,278.400 212.800 C 278.400 212.360,278.220 212.000,278.000 212.000 C 277.780 212.000,277.600 211.732,277.600 211.405 C 277.600 210.157,273.443 206.000,272.195 206.000 C 271.868 206.000,271.600 205.820,271.600 205.600 C 271.600 205.380,271.240 205.200,270.800 205.200 C 270.360 205.200,270.000 205.020,270.000 204.800 C 270.000 204.537,261.133 204.400,244.200 204.400 C 227.267 204.400,218.400 204.537,218.400 204.800 C 218.400 205.020,218.040 205.200,217.600 205.200 C 217.160 205.200,216.800 205.380,216.800 205.600 C 216.800 205.820,216.480 206.000,216.088 206.000 C 215.697 206.000,215.117 206.360,214.800 206.800 C 214.483 207.240,214.069 207.600,213.880 207.600 C 213.287 207.600,210.400 210.739,210.400 211.384 C 210.400 211.723,210.220 212.000,210.000 212.000 C 209.780 212.000,209.600 212.360,209.600 212.800 C 209.600 213.240,209.420 213.600,209.200 213.600 C 208.935 213.600,208.800 239.667,208.800 291.000 L 208.800 368.400 200.000 368.400 L 191.200 368.400 191.200 312.600 C 191.200 275.667,191.065 256.800,190.800 256.800 C 190.580 256.800,190.400 256.440,190.400 256.000 C 190.400 255.560,190.220 255.200,190.000 255.200 C 189.780 255.200,189.600 254.840,189.600 254.400 C 189.600 253.960,189.420 253.600,189.200 253.600 C 188.980 253.600,188.800 253.365,188.800 253.078 C 188.800 252.368,186.452 249.926,185.100 249.231 C 184.495 248.919,184.000 248.515,184.000 248.332 C 184.000 248.150,183.640 248.000,183.200 248.000 C 182.760 248.000,182.400 247.820,182.400 247.600 C 182.400 247.380,181.680 247.200,180.800 247.200 C 179.920 247.200,179.200 247.020,179.200 246.800 C 179.200 246.538,171.133 246.400,155.800 246.400 C 140.467 246.400,132.400 246.538,132.400 246.800 C 132.400 247.020,131.680 247.200,130.800 247.200 C 129.920 247.200,129.200 247.380,129.200 247.600 C 129.200 247.820,128.922 248.000,128.583 248.000 C 128.244 248.000,127.580 248.360,127.108 248.800 C 126.636 249.240,126.013 249.600,125.725 249.600 C 125.436 249.600,125.200 249.772,125.200 249.982 C 125.200 250.192,124.750 250.814,124.200 251.364 C 123.650 251.914,123.200 252.602,123.200 252.894 C 123.200 253.185,122.840 253.683,122.400 254.000 C 121.930 254.339,121.600 255.035,121.600 255.688 C 121.600 256.300,121.420 256.800,121.200 256.800 C 120.937 256.800,120.800 266.881,120.800 286.244 L 120.800 315.688 122.581 317.444 C 124.348 319.186,130.000 320.219,130.000 318.800 C 130.000 318.580,130.294 318.400,130.653 318.400 C 131.553 318.400,133.199 316.396,133.200 315.300 C 133.200 314.805,133.380 314.400,133.600 314.400 C 133.863 314.400,134.000 305.133,134.000 287.400 L 134.000 260.400 155.800 260.400 L 177.600 260.400 177.600 314.400 L 177.600 368.400 155.800 368.400 L 134.000 368.400 134.000 351.200 C 134.000 340.000,133.860 334.000,133.600 334.000 C 133.380 334.000,133.200 333.724,133.200 333.387 C 133.200 332.591,130.609 330.000,129.813 330.000 C 129.476 330.000,129.200 329.820,129.200 329.600 C 129.200 329.380,128.210 329.200,127.000 329.200 C 125.790 329.200,124.800 329.380,124.800 329.600 C 124.800 329.820,124.522 330.000,124.182 330.000 C 123.486 330.000,121.600 331.740,121.600 332.382 C 121.600 332.612,121.420 332.800,121.200 332.800 C 120.939 332.800,120.800 339.000,120.800 350.600 L 120.800 368.400 111.800 368.400 L 102.800 368.400 102.800 334.000 C 102.800 311.333,102.664 299.600,102.400 299.600 C 102.180 299.600,102.000 299.366,102.000 299.080 C 102.000 298.344,101.059 296.407,100.700 296.403 C 100.535 296.401,100.400 296.112,100.400 295.760 C 100.400 294.734,96.849 291.646,95.345 291.363 C 94.605 291.224,94.000 290.951,94.000 290.755 C 94.000 290.560,93.460 290.400,92.800 290.400 C 92.140 290.400,91.600 290.220,91.600 290.000 C 91.600 289.738,83.133 289.600,67.000 289.600 C 50.867 289.600,42.400 289.738,42.400 290.000 C 42.400 290.220,41.950 290.400,41.400 290.400 C 40.850 290.400,40.400 290.580,40.400 290.800 C 40.400 291.020,40.073 291.200,39.674 291.200 C 38.761 291.200,34.000 295.699,34.000 296.561 C 34.000 296.912,33.820 297.200,33.600 297.200 C 33.380 297.200,33.200 297.560,33.200 298.000 C 33.200 298.440,33.020 298.800,32.800 298.800 C 32.580 298.800,32.400 299.520,32.400 300.400 C 32.400 301.280,32.220 302.000,32.000 302.000 C 31.737 302.000,31.600 313.333,31.600 335.200 L 31.600 368.400 17.369 368.400 L 3.137 368.400 1.569 369.984 L 0.000 371.569 0.000 374.942 C 0.000 378.490,1.167 380.800,2.960 380.800 C 3.312 380.800,3.600 380.980,3.600 381.200 C 3.600 381.466,69.333 381.600,200.000 381.600 C 330.667 381.600,396.400 381.466,396.400 381.200 C 396.400 380.980,396.688 380.800,397.040 380.800 C 398.833 380.800,400.000 378.490,400.000 374.942 L 400.000 371.569 398.431 369.984 L 396.863 368.400 382.631 368.400 L 368.400 368.400 368.400 313.400 C 368.400 277.000,368.265 258.400,368.000 258.400 C 367.780 258.400,367.600 257.860,367.600 257.200 C 367.600 256.540,367.420 256.000,367.200 256.000 C 366.980 256.000,366.800 255.770,366.800 255.489 C 366.800 254.915,365.404 253.600,364.795 253.600 C 364.578 253.600,364.400 253.420,364.400 253.200 C 364.400 252.969,363.133 252.800,361.400 252.800 C 359.667 252.800,358.400 252.969,358.400 253.200 C 358.400 253.420,358.117 253.600,357.771 253.600 C 356.963 253.600,356.000 254.563,356.000 255.371 C 356.000 255.717,355.820 256.000,355.600 256.000 C 355.380 256.000,355.200 256.360,355.200 256.800 C 355.200 257.240,355.020 257.600,354.800 257.600 C 354.535 257.600,354.400 276.333,354.400 313.000 L 354.400 368.400 332.400 368.400 L 310.400 368.400 310.400 271.843 C 310.400 184.164,310.458 175.263,311.033 175.043 C 311.859 174.726,352.941 174.726,353.767 175.043 C 354.337 175.261,354.400 178.418,354.400 206.643 C 354.400 227.281,354.537 238.000,354.800 238.000 C 355.020 238.000,355.200 238.288,355.200 238.640 C 355.200 239.407,357.454 241.600,358.242 241.600 C 358.549 241.600,358.800 241.780,358.800 242.000 C 358.800 242.222,359.867 242.400,361.200 242.400 C 362.533 242.400,363.600 242.222,363.600 242.000 C 363.600 241.780,363.941 241.600,364.358 241.600 C 365.522 241.600,367.600 239.446,367.600 238.240 C 367.600 237.668,367.780 237.200,368.000 237.200 C 368.263 237.200,368.400 226.400,368.400 205.600 C 368.400 184.800,368.263 174.000,368.000 174.000 C 367.780 174.000,367.600 173.280,367.600 172.400 C 367.600 171.520,367.420 170.800,367.200 170.800 C 366.980 170.800,366.800 170.440,366.800 170.000 C 366.800 169.560,366.620 169.200,366.400 169.200 C 366.180 169.200,366.000 168.907,366.000 168.549 C 366.000 167.764,360.959 162.800,360.162 162.800 C 359.853 162.800,359.600 162.620,359.600 162.400 C 359.600 162.180,359.150 162.000,358.600 162.000 C 358.050 162.000,357.600 161.820,357.600 161.600 C 357.600 161.338,349.000 161.200,332.600 161.200 C 316.200 161.200,307.600 161.338,307.600 161.600 M266.000 293.000 L 266.000 368.400 244.200 368.400 L 222.400 368.400 222.400 293.000 L 222.400 217.600 244.200 217.600 L 266.000 217.600 266.000 293.000 M89.029 303.371 C 89.514 303.857,89.600 308.773,89.600 336.171 L 89.600 368.400 67.600 368.400 L 45.600 368.400 45.600 336.183 C 45.600 310.979,45.709 303.843,46.100 303.398 C 46.850 302.546,88.178 302.521,89.029 303.371 " stroke="none" fill="#18216d" fill-rule="evenodd"></path></g></svg>