<svg id="svg" version="1.1" xmlns="http://www.w3.org/2000/svg" xmlns:xlink="http://www.w3.org/1999/xlink" width="400" height="400" viewBox="0, 0, 400,400"><g id="svgg"><path id="path0" d="M154.400 61.600 C 154.400 61.820,153.500 62.000,152.400 62.000 C 151.300 62.000,150.400 62.180,150.400 62.400 C 150.400 62.620,150.040 62.800,149.600 62.800 C 149.160 62.800,148.800 62.980,148.800 63.200 C 148.800 63.420,148.440 63.600,148.000 63.600 C 147.560 63.600,147.200 63.780,147.200 64.000 C 147.200 64.220,146.852 64.400,146.427 64.400 C 146.002 64.400,145.540 64.760,145.400 65.200 C 145.255 65.657,144.795 66.000,144.326 66.000 C 143.411 66.000,141.216 68.260,141.206 69.212 C 141.203 69.548,140.840 70.083,140.400 70.400 C 139.960 70.717,139.600 71.297,139.600 71.688 C 139.600 72.080,139.420 72.400,139.200 72.400 C 138.980 72.400,138.800 72.760,138.800 73.200 C 138.800 73.640,138.620 74.000,138.400 74.000 C 138.180 74.000,138.000 74.270,138.000 74.600 C 138.000 74.930,137.820 75.200,137.600 75.200 C 137.380 75.200,137.200 76.100,137.200 77.200 C 137.200 78.300,137.020 79.200,136.800 79.200 C 136.580 79.200,136.400 80.100,136.400 81.200 C 136.400 82.300,136.580 83.200,136.800 83.200 C 137.020 83.200,137.200 84.100,137.200 85.200 C 137.200 86.300,137.380 87.200,137.600 87.200 C 137.820 87.200,138.000 87.560,138.000 88.000 C 138.000 88.440,138.180 88.800,138.400 88.800 C 138.620 88.800,138.800 89.171,138.800 89.624 C 138.800 90.077,138.980 90.336,139.200 90.200 C 139.420 90.064,139.600 90.284,139.600 90.688 C 139.600 91.093,139.960 91.683,140.400 92.000 C 140.840 92.317,141.203 92.852,141.206 93.188 C 141.216 94.140,143.411 96.400,144.326 96.400 C 144.795 96.400,145.255 96.743,145.400 97.200 C 145.540 97.640,146.002 98.000,146.427 98.000 C 146.852 98.000,147.200 98.180,147.200 98.400 C 147.200 98.620,147.560 98.800,148.000 98.800 C 148.440 98.800,148.800 98.980,148.800 99.200 C 148.800 99.420,149.160 99.600,149.600 99.600 C 150.040 99.600,150.400 99.780,150.400 100.000 C 150.400 100.220,151.300 100.400,152.400 100.400 C 153.500 100.400,154.400 100.580,154.400 100.800 C 154.400 101.064,167.800 101.200,193.800 101.200 C 219.800 101.200,233.200 101.064,233.200 100.800 C 233.200 100.580,234.100 100.400,235.200 100.400 C 236.300 100.400,237.200 100.220,237.200 100.000 C 237.200 99.780,237.560 99.600,238.000 99.600 C 238.440 99.600,238.800 99.420,238.800 99.200 C 238.800 98.980,239.160 98.800,239.600 98.800 C 240.040 98.800,240.400 98.620,240.400 98.400 C 240.400 98.180,240.630 98.000,240.912 98.000 C 241.193 98.000,241.683 97.640,242.000 97.200 C 242.317 96.760,242.813 96.400,243.102 96.400 C 243.784 96.400,246.400 93.784,246.400 93.102 C 246.400 92.813,246.760 92.317,247.200 92.000 C 247.640 91.683,248.000 91.193,248.000 90.912 C 248.000 90.630,248.180 90.400,248.400 90.400 C 248.620 90.400,248.800 90.040,248.800 89.600 C 248.800 89.160,248.980 88.800,249.200 88.800 C 249.420 88.800,249.600 88.440,249.600 88.000 C 249.600 87.560,249.780 87.200,250.000 87.200 C 250.220 87.200,250.400 86.300,250.400 85.200 C 250.400 84.100,250.580 83.200,250.800 83.200 C 251.020 83.200,251.200 82.300,251.200 81.200 C 251.200 80.100,251.020 79.200,250.800 79.200 C 250.580 79.200,250.400 78.300,250.400 77.200 C 250.400 76.100,250.220 75.200,250.000 75.200 C 249.780 75.200,249.600 74.930,249.600 74.600 C 249.600 74.270,249.420 74.000,249.200 74.000 C 248.980 74.000,248.800 73.640,248.800 73.200 C 248.800 72.760,248.620 72.400,248.400 72.400 C 248.180 72.400,248.000 72.080,248.000 71.688 C 248.000 71.297,247.640 70.717,247.200 70.400 C 246.760 70.083,246.400 69.587,246.400 69.298 C 246.400 68.616,243.784 66.000,243.102 66.000 C 242.813 66.000,242.317 65.640,242.000 65.200 C 241.683 64.760,241.103 64.400,240.712 64.400 C 240.320 64.400,240.000 64.220,240.000 64.000 C 240.000 63.780,239.730 63.600,239.400 63.600 C 239.070 63.600,238.800 63.420,238.800 63.200 C 238.800 62.980,238.440 62.800,238.000 62.800 C 237.560 62.800,237.200 62.620,237.200 62.400 C 237.200 62.180,236.300 62.000,235.200 62.000 C 234.100 62.000,233.200 61.820,233.200 61.600 C 233.200 61.336,219.800 61.200,193.800 61.200 C 167.800 61.200,154.400 61.336,154.400 61.600 M233.200 76.400 C 233.200 76.620,233.483 76.800,233.829 76.800 C 234.637 76.800,235.600 77.763,235.600 78.571 C 235.600 78.917,235.780 79.200,236.000 79.200 C 236.220 79.200,236.400 80.100,236.400 81.200 C 236.400 82.300,236.220 83.200,236.000 83.200 C 235.780 83.200,235.600 83.483,235.600 83.829 C 235.600 84.637,234.637 85.600,233.829 85.600 C 233.483 85.600,233.200 85.780,233.200 86.000 C 233.200 86.264,219.800 86.400,193.800 86.400 C 167.800 86.400,154.400 86.264,154.400 86.000 C 154.400 85.780,154.117 85.600,153.771 85.600 C 152.963 85.600,152.000 84.637,152.000 83.829 C 152.000 83.483,151.820 83.200,151.600 83.200 C 151.380 83.200,151.200 82.300,151.200 81.200 C 151.200 80.100,151.380 79.200,151.600 79.200 C 151.820 79.200,152.000 78.917,152.000 78.571 C 152.000 77.763,152.963 76.800,153.771 76.800 C 154.117 76.800,154.400 76.620,154.400 76.400 C 154.400 76.136,167.800 76.000,193.800 76.000 C 219.800 76.000,233.200 76.136,233.200 76.400 M161.700 249.398 C 160.937 250.265,161.000 262.257,161.771 263.029 C 162.625 263.882,199.775 263.882,200.629 263.029 C 201.459 262.198,201.459 250.202,200.629 249.371 C 199.779 248.522,162.449 248.547,161.700 249.398 M211.700 249.398 C 210.937 250.265,211.000 262.257,211.771 263.029 C 212.602 263.859,224.598 263.859,225.429 263.029 C 225.875 262.582,226.000 261.090,226.000 256.200 C 226.000 251.310,225.875 249.818,225.429 249.371 C 224.601 248.544,212.431 248.568,211.700 249.398 M155.200 286.800 C 155.200 287.020,154.745 287.200,154.189 287.200 C 152.949 287.200,149.600 290.403,149.600 291.589 C 149.600 292.035,149.420 292.400,149.200 292.400 C 148.980 292.400,148.800 292.940,148.800 293.600 C 148.800 294.260,148.980 294.800,149.200 294.800 C 149.420 294.800,149.600 295.255,149.600 295.811 C 149.600 297.189,152.811 300.400,154.189 300.400 C 154.745 300.400,155.200 300.580,155.200 300.800 C 155.200 301.064,170.400 301.200,200.000 301.200 C 229.600 301.200,244.800 301.064,244.800 300.800 C 244.800 300.580,245.255 300.400,245.811 300.400 C 247.189 300.400,250.400 297.189,250.400 295.811 C 250.400 295.255,250.580 294.800,250.800 294.800 C 251.020 294.800,251.200 294.260,251.200 293.600 C 251.200 292.940,251.020 292.400,250.800 292.400 C 250.580 292.400,250.400 292.035,250.400 291.589 C 250.400 290.403,247.051 287.200,245.811 287.200 C 245.255 287.200,244.800 287.020,244.800 286.800 C 244.800 286.536,229.600 286.400,200.000 286.400 C 170.400 286.400,155.200 286.536,155.200 286.800 M186.400 305.600 C 186.400 305.820,185.944 306.000,185.387 306.000 C 184.762 306.000,183.836 306.537,182.973 307.400 C 182.203 308.170,181.399 308.800,181.187 308.800 C 180.974 308.800,180.800 309.340,180.800 310.000 C 180.800 310.660,180.620 311.200,180.400 311.200 C 180.180 311.200,180.000 311.740,180.000 312.400 C 180.000 313.060,180.180 313.600,180.400 313.600 C 180.620 313.600,180.800 314.045,180.800 314.589 C 180.800 315.933,184.067 319.200,185.411 319.200 C 185.955 319.200,186.400 319.380,186.400 319.600 C 186.400 319.852,189.133 320.000,193.800 320.000 C 198.467 320.000,201.200 319.852,201.200 319.600 C 201.200 319.380,201.740 319.200,202.400 319.200 C 203.060 319.200,203.600 319.048,203.600 318.861 C 203.600 318.429,205.003 316.800,205.375 316.800 C 206.008 316.800,206.800 315.592,206.800 314.629 C 206.800 314.063,206.980 313.600,207.200 313.600 C 207.420 313.600,207.600 313.060,207.600 312.400 C 207.600 311.740,207.432 311.200,207.227 311.200 C 207.021 311.200,206.796 310.723,206.727 310.140 C 206.657 309.558,206.248 308.883,205.817 308.640 C 204.861 308.103,203.847 307.200,204.200 307.200 C 204.341 307.200,204.187 306.930,203.857 306.600 C 203.527 306.270,202.794 306.000,202.229 306.000 C 201.663 306.000,201.200 305.820,201.200 305.600 C 201.200 305.348,198.467 305.200,193.800 305.200 C 189.133 305.200,186.400 305.348,186.400 305.600 M161.200 324.400 C 161.200 324.620,160.654 324.800,159.987 324.800 C 159.198 324.800,158.684 325.044,158.515 325.500 C 158.225 326.283,156.860 327.600,156.339 327.600 C 156.152 327.600,156.000 328.140,156.000 328.800 C 156.000 329.460,155.820 330.000,155.600 330.000 C 155.380 330.000,155.200 330.540,155.200 331.200 C 155.200 331.860,155.380 332.400,155.600 332.400 C 155.820 332.400,156.000 332.856,156.000 333.413 C 156.000 334.038,156.537 334.964,157.400 335.827 C 158.170 336.597,158.800 337.401,158.800 337.613 C 158.800 337.826,159.340 338.000,160.000 338.000 C 160.660 338.000,161.200 338.180,161.200 338.400 C 161.200 338.663,172.267 338.800,193.600 338.800 C 214.933 338.800,226.000 338.663,226.000 338.400 C 226.000 338.180,226.455 338.000,227.011 338.000 C 228.389 338.000,231.600 334.789,231.600 333.411 C 231.600 332.855,231.780 332.400,232.000 332.400 C 232.220 332.400,232.400 331.860,232.400 331.200 C 232.400 330.540,232.220 330.000,232.000 330.000 C 231.780 330.000,231.600 329.460,231.600 328.800 C 231.600 328.140,231.448 327.600,231.261 327.600 C 230.753 327.600,229.200 326.166,229.200 325.696 C 229.200 325.185,228.239 324.800,226.967 324.800 C 226.435 324.800,226.000 324.620,226.000 324.400 C 226.000 324.137,214.933 324.000,193.600 324.000 C 172.267 324.000,161.200 324.137,161.200 324.400 " stroke="none" fill="#ff7f27" fill-rule="evenodd"></path><path id="path1" d="M91.796 86.600 C 91.796 125.320,91.843 141.101,91.900 121.668 C 91.957 102.236,91.957 70.556,91.900 51.268 C 91.843 31.981,91.796 47.880,91.796 86.600 M177.600 18.800 C 177.600 19.020,177.407 19.200,177.171 19.200 C 176.936 19.200,176.514 19.429,176.235 19.708 C 173.785 22.158,174.515 30.800,177.171 30.800 C 177.407 30.800,177.600 30.980,177.600 31.200 C 177.600 31.460,183.200 31.600,193.600 31.600 C 204.000 31.600,209.600 31.460,209.600 31.200 C 209.600 30.980,209.883 30.800,210.229 30.800 C 211.037 30.800,212.000 29.837,212.000 29.029 C 212.000 28.683,212.180 28.400,212.400 28.400 C 212.635 28.400,212.800 27.000,212.800 25.000 C 212.800 23.000,212.635 21.600,212.400 21.600 C 212.180 21.600,212.000 21.317,212.000 20.971 C 212.000 20.163,211.037 19.200,210.229 19.200 C 209.883 19.200,209.600 19.020,209.600 18.800 C 209.600 18.540,204.000 18.400,193.600 18.400 C 183.200 18.400,177.600 18.540,177.600 18.800 M238.678 113.354 C 237.865 114.099,237.200 114.999,237.200 115.354 C 237.200 115.709,237.020 116.000,236.800 116.000 C 236.580 116.000,236.400 116.529,236.400 117.176 C 236.400 117.823,236.220 118.464,236.000 118.600 C 235.780 118.736,235.600 119.467,235.600 120.224 C 235.600 120.981,235.420 121.600,235.200 121.600 C 234.980 121.600,234.800 122.140,234.800 122.800 C 234.800 123.460,234.620 124.000,234.400 124.000 C 234.180 124.000,234.000 124.540,234.000 125.200 C 234.000 125.860,233.820 126.400,233.600 126.400 C 233.380 126.400,233.200 126.839,233.200 127.376 C 233.200 127.913,233.020 128.464,232.800 128.600 C 232.580 128.736,232.400 129.287,232.400 129.824 L 232.400 130.800 189.400 130.800 C 165.750 130.800,146.400 130.937,146.400 131.105 C 146.400 131.273,145.995 131.588,145.500 131.805 C 145.005 132.022,144.422 132.605,144.205 133.100 C 143.988 133.595,143.673 134.000,143.505 134.000 C 143.337 134.000,143.200 135.710,143.200 137.800 C 143.200 140.067,143.361 141.600,143.600 141.600 C 143.820 141.600,144.000 142.320,144.000 143.200 C 144.000 144.080,144.180 144.800,144.400 144.800 C 144.620 144.800,144.800 145.520,144.800 146.400 C 144.800 147.280,144.980 148.000,145.200 148.000 C 145.420 148.000,145.600 148.720,145.600 149.600 C 145.600 150.480,145.780 151.200,146.000 151.200 C 146.220 151.200,146.400 151.920,146.400 152.800 C 146.400 153.680,146.580 154.400,146.800 154.400 C 147.020 154.400,147.200 155.019,147.200 155.776 C 147.200 156.533,147.380 157.264,147.600 157.400 C 147.820 157.536,148.000 158.267,148.000 159.024 C 148.000 159.781,148.180 160.400,148.400 160.400 C 148.620 160.400,148.800 161.120,148.800 162.000 C 148.800 162.880,148.980 163.600,149.200 163.600 C 149.420 163.600,149.600 164.320,149.600 165.200 C 149.600 166.080,149.780 166.800,150.000 166.800 C 150.220 166.800,150.400 167.520,150.400 168.400 C 150.400 169.280,150.580 170.000,150.800 170.000 C 151.020 170.000,151.200 170.619,151.200 171.376 C 151.200 172.133,151.380 172.864,151.600 173.000 C 151.820 173.136,152.000 173.867,152.000 174.624 C 152.000 175.381,152.180 176.000,152.400 176.000 C 152.620 176.000,152.800 176.720,152.800 177.600 C 152.800 178.480,152.980 179.200,153.200 179.200 C 153.420 179.200,153.600 179.920,153.600 180.800 C 153.600 181.680,153.780 182.400,154.000 182.400 C 154.220 182.400,154.400 183.120,154.400 184.000 C 154.400 184.880,154.580 185.600,154.800 185.600 C 155.020 185.600,155.200 186.320,155.200 187.200 C 155.200 188.080,155.380 188.800,155.600 188.800 C 155.820 188.800,156.000 189.340,156.000 190.000 C 156.000 190.660,156.180 191.200,156.400 191.200 C 156.620 191.200,156.800 191.393,156.800 191.629 C 156.800 192.132,157.485 192.803,158.710 193.500 C 159.839 194.142,228.400 194.241,228.400 193.600 C 228.400 193.380,228.678 193.200,229.018 193.200 C 229.910 193.200,231.600 191.379,231.600 190.418 C 231.600 189.968,231.780 189.600,232.000 189.600 C 232.220 189.600,232.400 188.880,232.400 188.000 C 232.400 187.120,232.580 186.400,232.800 186.400 C 233.020 186.400,233.200 185.680,233.200 184.800 C 233.200 183.920,233.380 183.200,233.600 183.200 C 233.820 183.200,234.000 182.480,234.000 181.600 C 234.000 180.720,234.180 180.000,234.400 180.000 C 234.620 180.000,234.800 179.280,234.800 178.400 C 234.800 177.520,234.980 176.800,235.200 176.800 C 235.420 176.800,235.600 176.181,235.600 175.424 C 235.600 174.667,235.780 173.936,236.000 173.800 C 236.220 173.664,236.400 172.933,236.400 172.176 C 236.400 171.419,236.580 170.800,236.800 170.800 C 237.020 170.800,237.200 170.080,237.200 169.200 C 237.200 168.320,237.380 167.600,237.600 167.600 C 237.820 167.600,238.000 166.880,238.000 166.000 C 238.000 165.120,238.180 164.400,238.400 164.400 C 238.620 164.400,238.800 163.680,238.800 162.800 C 238.800 161.920,238.980 161.200,239.200 161.200 C 239.420 161.200,239.600 160.480,239.600 159.600 C 239.600 158.720,239.780 158.000,240.000 158.000 C 240.220 158.000,240.400 157.381,240.400 156.624 C 240.400 155.867,240.565 155.145,240.766 155.021 C 240.967 154.896,241.259 153.446,241.413 151.797 C 241.568 150.149,241.853 148.800,242.047 148.800 C 242.241 148.800,242.400 148.080,242.400 147.200 C 242.400 146.320,242.580 145.600,242.800 145.600 C 243.020 145.600,243.200 144.880,243.200 144.000 C 243.200 143.120,243.380 142.400,243.600 142.400 C 243.820 142.400,244.000 141.770,244.000 141.000 C 244.000 140.230,244.180 139.600,244.400 139.600 C 244.620 139.600,244.800 139.060,244.800 138.400 C 244.800 137.740,244.980 137.200,245.200 137.200 C 245.420 137.200,245.600 136.660,245.600 136.000 C 245.600 135.340,245.780 134.800,246.000 134.800 C 246.220 134.800,246.400 134.260,246.400 133.600 C 246.400 132.940,246.580 132.400,246.800 132.400 C 247.020 132.400,247.200 131.860,247.200 131.200 C 247.200 130.540,247.380 130.000,247.600 130.000 C 247.820 130.000,248.000 129.460,248.000 128.800 C 248.000 128.140,248.180 127.600,248.400 127.600 C 248.620 127.600,248.800 127.060,248.800 126.400 L 248.800 125.200 259.000 125.200 L 269.200 125.200 269.200 118.600 L 269.200 112.000 254.678 112.000 L 240.156 112.000 238.678 113.354 M169.200 147.200 C 169.200 149.067,169.367 150.400,169.600 150.400 C 169.829 150.400,170.000 151.600,170.000 153.200 L 170.000 156.000 166.171 156.000 C 161.813 156.000,161.200 155.683,161.200 153.429 C 161.200 152.643,161.020 152.000,160.800 152.000 C 160.580 152.000,160.400 151.280,160.400 150.400 C 160.400 149.520,160.220 148.800,160.000 148.800 C 159.780 148.800,159.600 148.080,159.600 147.200 C 159.600 146.320,159.420 145.600,159.200 145.600 C 158.980 145.600,158.800 145.240,158.800 144.800 C 158.800 144.041,159.067 144.000,164.000 144.000 L 169.200 144.000 169.200 147.200 M204.400 146.520 C 204.400 147.906,204.229 149.211,204.020 149.420 C 203.810 149.630,203.585 151.151,203.520 152.800 L 203.400 155.800 194.028 155.908 C 183.330 156.030,184.015 156.275,184.006 152.324 C 184.003 150.852,183.820 149.536,183.600 149.400 C 183.380 149.264,183.200 147.993,183.200 146.576 L 183.200 144.000 193.800 144.000 L 204.400 144.000 204.400 146.520 M228.400 144.776 C 228.400 145.203,228.220 145.664,228.000 145.800 C 227.780 145.936,227.600 146.656,227.600 147.400 C 227.600 148.144,227.420 148.864,227.200 149.000 C 226.980 149.136,226.800 149.856,226.800 150.600 C 226.800 151.344,226.620 152.064,226.400 152.200 C 226.180 152.336,226.000 152.962,226.000 153.591 C 226.000 155.922,225.856 156.000,221.557 156.000 L 217.600 156.000 217.600 153.424 C 217.600 152.007,217.780 150.736,218.000 150.600 C 218.220 150.464,218.400 149.208,218.400 147.809 C 218.400 143.840,218.180 144.000,223.643 144.000 C 228.085 144.000,228.400 144.051,228.400 144.776 M172.400 172.200 C 172.400 173.933,172.569 175.200,172.800 175.200 C 173.029 175.200,173.200 176.400,173.200 178.000 L 173.200 180.800 170.971 180.800 C 168.409 180.800,167.600 180.237,167.600 178.452 C 167.600 177.789,167.420 177.136,167.200 177.000 C 166.980 176.864,166.800 176.144,166.800 175.400 C 166.800 174.656,166.639 173.948,166.442 173.826 C 166.245 173.705,166.005 172.929,165.907 172.103 C 165.809 171.276,165.591 170.285,165.422 169.900 C 165.142 169.262,165.437 169.200,168.757 169.200 L 172.400 169.200 172.400 172.200 M201.200 172.000 C 201.200 173.600,201.029 174.800,200.800 174.800 C 200.569 174.800,200.400 176.070,200.400 177.810 L 200.400 180.820 193.900 180.710 L 187.400 180.600 187.093 177.400 C 186.924 175.640,186.684 173.075,186.559 171.700 L 186.332 169.200 193.766 169.200 L 201.200 169.200 201.200 172.000 M222.400 170.000 C 222.400 170.440,222.220 170.800,222.000 170.800 C 221.780 170.800,221.600 171.520,221.600 172.400 C 221.600 173.280,221.420 174.000,221.200 174.000 C 220.980 174.000,220.800 174.619,220.800 175.376 C 220.800 176.133,220.620 176.864,220.400 177.000 C 220.180 177.136,220.000 177.789,220.000 178.452 C 220.000 180.237,219.191 180.800,216.629 180.800 L 214.400 180.800 214.400 178.400 C 214.400 177.067,214.578 176.000,214.800 176.000 C 215.029 176.000,215.200 174.794,215.200 173.183 C 215.200 169.474,215.447 169.234,219.300 169.215 C 222.138 169.201,222.400 169.268,222.400 170.000 M162.800 200.000 C 162.800 200.220,162.476 200.400,162.080 200.400 C 161.186 200.400,159.207 201.294,159.203 201.700 C 159.201 201.865,158.939 202.000,158.619 202.000 C 157.863 202.000,152.000 207.863,152.000 208.619 C 152.000 208.939,151.865 209.201,151.700 209.203 C 151.294 209.207,150.400 211.186,150.400 212.080 C 150.400 212.476,150.220 212.800,150.000 212.800 C 149.752 212.800,149.600 215.000,149.600 218.600 C 149.600 222.200,149.752 224.400,150.000 224.400 C 150.220 224.400,150.400 224.940,150.400 225.600 C 150.400 226.260,150.580 226.800,150.800 226.800 C 151.020 226.800,151.200 227.160,151.200 227.600 C 151.200 228.040,151.380 228.400,151.600 228.400 C 151.820 228.400,152.000 228.661,152.000 228.981 C 152.000 229.737,157.863 235.600,158.619 235.600 C 158.939 235.600,159.200 235.780,159.200 236.000 C 159.200 236.220,159.560 236.400,160.000 236.400 C 160.440 236.400,160.800 236.580,160.800 236.800 C 160.800 237.020,161.239 237.200,161.776 237.200 C 162.313 237.200,162.864 237.380,163.000 237.600 C 163.146 237.836,165.537 238.000,168.824 238.000 C 172.275 238.000,174.400 237.848,174.400 237.600 C 174.400 237.380,174.940 237.200,175.600 237.200 C 176.260 237.200,176.800 237.020,176.800 236.800 C 176.800 236.580,177.160 236.400,177.600 236.400 C 178.040 236.400,178.400 236.220,178.400 236.000 C 178.400 235.780,178.661 235.600,178.981 235.600 C 179.737 235.600,185.600 229.737,185.600 228.981 C 185.600 228.661,185.780 228.400,186.000 228.400 C 186.220 228.400,186.400 228.040,186.400 227.600 C 186.400 227.160,186.580 226.800,186.800 226.800 C 187.020 226.800,187.200 226.260,187.200 225.600 C 187.200 224.940,187.380 224.400,187.600 224.400 C 187.848 224.400,188.000 222.275,188.000 218.824 C 188.000 215.537,187.836 213.146,187.600 213.000 C 187.380 212.864,187.200 212.313,187.200 211.776 C 187.200 211.239,187.020 210.800,186.800 210.800 C 186.580 210.800,186.400 210.440,186.400 210.000 C 186.400 209.560,186.220 209.200,186.000 209.200 C 185.780 209.200,185.600 208.939,185.600 208.619 C 185.600 207.863,179.737 202.000,178.981 202.000 C 178.661 202.000,178.400 201.820,178.400 201.600 C 178.400 201.380,178.040 201.200,177.600 201.200 C 177.160 201.200,176.800 201.020,176.800 200.800 C 176.800 200.580,176.260 200.400,175.600 200.400 C 174.940 200.400,174.400 200.220,174.400 200.000 C 174.400 199.752,172.200 199.600,168.600 199.600 C 165.000 199.600,162.800 199.752,162.800 200.000 M212.800 200.000 C 212.800 200.220,212.476 200.400,212.080 200.400 C 211.186 200.400,209.207 201.294,209.203 201.700 C 209.201 201.865,208.939 202.000,208.619 202.000 C 208.300 202.000,206.680 203.359,205.019 205.019 C 203.359 206.680,202.000 208.300,202.000 208.619 C 202.000 208.939,201.865 209.201,201.700 209.203 C 201.294 209.207,200.400 211.186,200.400 212.080 C 200.400 212.476,200.220 212.800,200.000 212.800 C 199.752 212.800,199.600 215.000,199.600 218.600 C 199.600 222.200,199.752 224.400,200.000 224.400 C 200.220 224.400,200.400 224.940,200.400 225.600 C 200.400 226.260,200.580 226.800,200.800 226.800 C 201.020 226.800,201.200 227.160,201.200 227.600 C 201.200 228.040,201.380 228.400,201.600 228.400 C 201.820 228.400,202.000 228.661,202.000 228.981 C 202.000 229.737,207.863 235.600,208.619 235.600 C 208.939 235.600,209.200 235.780,209.200 236.000 C 209.200 236.220,209.560 236.400,210.000 236.400 C 210.440 236.400,210.800 236.580,210.800 236.800 C 210.800 237.020,211.239 237.200,211.776 237.200 C 212.313 237.200,212.864 237.380,213.000 237.600 C 213.146 237.836,215.537 238.000,218.824 238.000 C 222.275 238.000,224.400 237.848,224.400 237.600 C 224.400 237.380,224.940 237.200,225.600 237.200 C 226.260 237.200,226.800 237.020,226.800 236.800 C 226.800 236.580,227.160 236.400,227.600 236.400 C 228.040 236.400,228.400 236.220,228.400 236.000 C 228.400 235.780,228.661 235.600,228.981 235.600 C 229.737 235.600,235.600 229.737,235.600 228.981 C 235.600 228.661,235.780 228.400,236.000 228.400 C 236.220 228.400,236.400 228.040,236.400 227.600 C 236.400 227.160,236.580 226.800,236.800 226.800 C 237.020 226.800,237.200 226.260,237.200 225.600 C 237.200 224.940,237.380 224.400,237.600 224.400 C 237.848 224.400,238.000 222.275,238.000 218.824 C 238.000 215.537,237.836 213.146,237.600 213.000 C 237.380 212.864,237.200 212.313,237.200 211.776 C 237.200 211.239,237.020 210.800,236.800 210.800 C 236.580 210.800,236.400 210.440,236.400 210.000 C 236.400 209.560,236.220 209.200,236.000 209.200 C 235.780 209.200,235.600 208.939,235.600 208.619 C 235.600 207.863,229.737 202.000,228.981 202.000 C 228.661 202.000,228.400 201.820,228.400 201.600 C 228.400 201.380,228.040 201.200,227.600 201.200 C 227.160 201.200,226.800 201.020,226.800 200.800 C 226.800 200.580,226.260 200.400,225.600 200.400 C 224.940 200.400,224.400 200.220,224.400 200.000 C 224.400 199.752,222.200 199.600,218.600 199.600 C 215.000 199.600,212.800 199.752,212.800 200.000 M171.290 214.100 C 172.515 214.797,173.200 215.468,173.200 215.971 C 173.200 216.207,173.380 216.400,173.600 216.400 C 174.173 216.400,174.095 220.244,173.500 221.290 C 170.638 226.322,163.600 224.299,163.600 218.445 C 163.600 214.688,167.976 212.215,171.290 214.100 M221.290 214.100 C 222.515 214.797,223.200 215.468,223.200 215.971 C 223.200 216.207,223.380 216.400,223.600 216.400 C 223.820 216.400,224.000 217.390,224.000 218.600 C 224.000 219.810,223.820 220.800,223.600 220.800 C 223.380 220.800,223.200 221.083,223.200 221.429 C 223.200 221.774,222.943 222.314,222.629 222.629 C 222.314 222.943,221.774 223.200,221.429 223.200 C 221.083 223.200,220.800 223.380,220.800 223.600 C 220.800 223.820,219.810 224.000,218.600 224.000 C 217.390 224.000,216.400 223.820,216.400 223.600 C 216.400 223.380,216.207 223.200,215.971 223.200 C 214.791 223.200,213.600 220.812,213.600 218.445 C 213.600 214.688,217.976 212.215,221.290 214.100 M150.860 288.642 C 150.131 289.466,150.600 289.857,151.381 289.076 C 151.721 288.736,152.000 288.354,152.000 288.229 C 152.000 287.809,151.406 288.024,150.860 288.642 M248.000 288.229 C 248.000 288.653,249.236 289.697,249.467 289.467 C 249.592 289.341,249.417 288.960,249.076 288.619 C 248.441 287.984,248.000 287.824,248.000 288.229 M151.002 298.802 C 151.402 299.244,151.811 299.522,151.912 299.421 C 152.128 299.205,150.988 298.000,150.567 298.000 C 150.407 298.000,150.603 298.361,151.002 298.802 M248.460 298.642 C 248.162 298.978,247.999 299.332,248.095 299.429 C 248.192 299.526,248.598 299.244,248.998 298.802 C 249.397 298.361,249.561 298.007,249.362 298.015 C 249.163 298.024,248.757 298.305,248.460 298.642 M182.060 307.442 C 181.331 308.266,181.800 308.657,182.581 307.876 C 182.921 307.536,183.200 307.154,183.200 307.029 C 183.200 306.609,182.606 306.824,182.060 307.442 M182.202 317.602 C 182.602 318.044,183.011 318.322,183.112 318.221 C 183.328 318.005,182.188 316.800,181.767 316.800 C 181.607 316.800,181.803 317.161,182.202 317.602 M157.213 326.291 C 156.689 326.882,156.703 326.923,157.346 326.676 C 157.742 326.524,158.141 326.400,158.233 326.400 C 158.325 326.400,158.400 326.220,158.400 326.000 C 158.400 325.412,157.881 325.539,157.213 326.291 M229.200 325.957 C 229.200 326.154,229.485 326.424,229.833 326.557 C 230.811 326.933,230.908 326.851,230.257 326.200 C 229.577 325.520,229.200 325.433,229.200 325.957 M157.402 336.402 C 157.802 336.844,158.211 337.122,158.312 337.021 C 158.528 336.805,157.388 335.600,156.967 335.600 C 156.807 335.600,157.003 335.961,157.402 336.402 M229.660 336.242 C 229.362 336.578,229.199 336.932,229.295 337.029 C 229.392 337.126,229.798 336.844,230.198 336.402 C 230.597 335.961,230.761 335.607,230.562 335.615 C 230.363 335.624,229.957 335.905,229.660 336.242 M241.774 353.200 C 241.774 358.810,241.830 361.105,241.899 358.300 C 241.968 355.495,241.968 350.905,241.899 348.100 C 241.830 345.295,241.774 347.590,241.774 353.200 " stroke="none" fill="#000000" fill-rule="evenodd"></path><path id="path2" d="M103.806 0.293 C 103.369 0.404,102.718 0.834,102.359 1.247 C 102.000 1.661,101.524 2.000,101.301 2.000 C 100.675 2.000,95.600 7.122,95.600 7.754 C 95.600 8.062,95.330 8.418,95.000 8.545 C 94.670 8.671,94.400 9.141,94.400 9.587 C 94.400 10.034,94.223 10.400,94.008 10.400 C 93.792 10.400,93.497 10.895,93.352 11.500 C 93.208 12.105,92.890 12.853,92.645 13.161 C 92.323 13.568,92.170 33.468,92.093 85.097 C 91.978 160.940,92.064 157.600,90.229 157.600 C 89.883 157.600,89.600 157.780,89.600 158.000 C 89.600 158.220,89.060 158.400,88.400 158.400 C 87.740 158.400,87.200 158.599,87.200 158.843 C 87.200 159.086,86.923 159.179,86.585 159.050 C 86.232 158.914,85.871 159.071,85.737 159.419 C 85.585 159.815,85.229 159.936,84.703 159.769 C 84.215 159.614,83.997 159.671,84.146 159.913 C 84.282 160.133,83.754 160.616,82.972 160.986 C 82.191 161.357,81.453 161.917,81.333 162.230 C 81.213 162.544,80.819 162.802,80.457 162.804 C 80.096 162.806,79.375 163.346,78.855 164.004 C 78.335 164.662,77.660 165.200,77.355 165.200 C 77.050 165.200,76.845 165.425,76.900 165.700 C 76.955 165.975,76.753 166.148,76.451 166.084 C 76.076 166.004,75.988 166.191,76.172 166.671 C 76.321 167.059,76.314 167.248,76.158 167.091 C 75.782 166.715,74.746 167.589,75.028 168.045 C 75.149 168.240,75.053 168.400,74.816 168.400 C 74.159 168.400,69.200 173.502,69.200 174.179 C 69.200 174.505,68.840 174.965,68.400 175.200 C 67.960 175.435,67.600 175.992,67.600 176.438 C 67.600 176.883,67.420 177.136,67.200 177.000 C 66.980 176.864,66.800 177.101,66.800 177.527 C 66.800 177.953,66.534 178.523,66.208 178.793 C 65.500 179.381,64.400 181.500,64.400 182.277 C 64.400 182.582,64.040 183.538,63.600 184.400 C 63.160 185.262,62.800 186.415,62.800 186.960 C 62.800 187.506,62.620 188.064,62.400 188.200 C 62.180 188.336,62.000 189.031,62.000 189.744 C 62.000 190.457,61.785 191.255,61.521 191.519 C 60.831 192.209,60.819 206.873,61.509 207.103 C 61.779 207.193,62.000 207.691,62.000 208.210 C 62.000 208.728,62.180 209.264,62.400 209.400 C 62.620 209.536,62.800 210.177,62.800 210.824 C 62.800 211.471,62.946 212.000,63.125 212.000 C 63.304 212.000,63.705 212.649,64.017 213.443 C 64.328 214.237,65.034 215.241,65.586 215.674 C 66.498 216.392,66.526 216.498,65.894 216.851 C 65.512 217.065,65.200 217.591,65.200 218.020 C 65.200 218.449,65.020 218.800,64.800 218.800 C 64.580 218.800,64.400 219.250,64.400 219.800 C 64.400 220.350,64.220 220.800,64.000 220.800 C 63.780 220.800,63.600 221.149,63.600 221.576 C 63.600 222.003,63.420 222.464,63.200 222.600 C 62.980 222.736,62.800 223.276,62.800 223.800 C 62.800 224.324,62.620 224.864,62.400 225.000 C 62.180 225.136,62.000 225.777,62.000 226.424 C 62.000 227.071,61.846 227.600,61.658 227.600 C 61.471 227.600,61.280 228.984,61.235 230.675 C 61.191 232.367,61.057 233.908,60.938 234.101 C 60.612 234.628,60.558 239.985,60.878 240.100 C 61.030 240.155,61.196 241.235,61.246 242.500 C 61.296 243.765,61.486 244.800,61.668 244.800 C 61.851 244.800,62.000 245.239,62.000 245.776 C 62.000 246.313,62.180 246.864,62.400 247.000 C 62.620 247.136,62.800 247.676,62.800 248.200 C 62.800 248.724,62.980 249.264,63.200 249.400 C 63.420 249.536,63.600 249.997,63.600 250.424 C 63.600 250.851,63.780 251.200,64.000 251.200 C 64.220 251.200,64.400 251.457,64.400 251.771 C 64.400 252.085,64.871 252.713,65.447 253.165 C 66.325 253.856,66.389 254.029,65.847 254.237 C 65.491 254.374,65.200 254.826,65.200 255.243 C 65.200 255.659,65.020 256.000,64.800 256.000 C 64.580 256.000,64.396 256.495,64.391 257.100 C 64.386 257.705,64.030 258.650,63.600 259.200 C 63.170 259.750,62.814 260.706,62.809 261.324 C 62.804 261.942,62.655 262.357,62.477 262.247 C 62.299 262.138,62.110 262.802,62.057 263.724 C 62.003 264.646,61.789 265.460,61.580 265.533 C 61.371 265.607,61.200 266.972,61.200 268.567 C 61.200 270.162,61.090 271.577,60.956 271.711 C 60.637 272.030,60.637 277.170,60.956 277.489 C 61.090 277.623,61.200 278.663,61.200 279.800 C 61.200 280.937,61.323 281.990,61.474 282.141 C 62.437 283.103,63.115 286.958,62.400 287.400 C 62.180 287.536,62.000 288.231,62.000 288.944 C 62.000 289.657,61.790 290.450,61.534 290.706 C 60.866 291.374,60.857 306.886,61.523 307.108 C 61.786 307.195,62.000 307.691,62.000 308.210 C 62.000 308.728,62.180 309.264,62.400 309.400 C 62.620 309.536,62.800 310.162,62.800 310.790 C 62.800 311.419,62.935 311.993,63.100 312.067 C 63.540 312.262,65.200 315.578,65.200 316.261 C 65.200 316.584,65.380 316.736,65.600 316.600 C 65.820 316.464,66.000 316.633,66.000 316.976 C 66.000 317.319,66.180 317.600,66.400 317.600 C 66.620 317.600,66.800 317.788,66.800 318.017 C 66.800 318.247,67.258 318.922,67.819 319.517 C 68.379 320.113,69.119 321.183,69.463 321.896 C 69.807 322.610,70.203 323.135,70.344 323.065 C 70.485 322.994,71.892 324.256,73.472 325.868 C 75.051 327.481,76.253 328.800,76.143 328.800 C 76.033 328.800,76.227 329.084,76.575 329.432 C 76.923 329.780,77.402 329.999,77.639 329.920 C 77.877 329.841,78.857 330.562,79.818 331.523 C 80.778 332.483,81.752 333.153,81.982 333.011 C 82.212 332.869,82.400 333.005,82.400 333.314 C 82.400 333.622,83.205 334.288,84.188 334.794 C 85.172 335.300,85.881 335.868,85.765 336.057 C 85.648 336.246,85.841 336.400,86.193 336.400 C 86.545 336.400,87.220 336.760,87.692 337.200 C 88.164 337.640,88.787 338.000,89.075 338.000 C 89.364 338.000,89.600 338.180,89.600 338.400 C 89.600 338.620,89.876 338.800,90.214 338.800 C 90.552 338.800,91.304 339.112,91.886 339.493 C 92.468 339.875,93.137 340.209,93.372 340.236 C 94.345 340.348,95.600 340.917,95.600 341.247 C 95.600 341.441,95.949 341.600,96.376 341.600 C 96.803 341.600,97.264 341.780,97.400 342.000 C 97.536 342.220,98.087 342.400,98.624 342.400 C 99.333 342.400,99.600 342.618,99.600 343.200 C 99.600 343.640,99.780 344.000,100.000 344.000 C 100.220 344.000,100.400 344.360,100.400 344.800 C 100.400 345.240,100.580 345.600,100.800 345.600 C 101.020 345.600,101.200 346.140,101.200 346.800 C 101.200 347.460,101.380 348.000,101.600 348.000 C 101.820 348.000,102.000 348.355,102.000 348.788 C 102.000 349.221,102.360 350.217,102.800 351.000 C 103.240 351.783,103.600 352.689,103.600 353.012 C 103.600 353.335,103.746 353.600,103.925 353.600 C 104.104 353.600,104.498 354.230,104.800 355.000 C 105.102 355.770,105.496 356.400,105.675 356.400 C 105.854 356.400,106.000 356.634,106.000 356.920 C 106.000 357.656,106.941 359.593,107.300 359.597 C 107.465 359.599,107.600 359.960,107.600 360.400 C 107.600 360.840,107.780 361.200,108.000 361.200 C 108.220 361.200,108.400 361.560,108.400 362.000 C 108.400 362.440,108.599 362.800,108.843 362.800 C 109.086 362.800,109.179 363.077,109.050 363.415 C 108.914 363.768,109.071 364.129,109.419 364.263 C 109.815 364.415,109.936 364.771,109.769 365.297 C 109.601 365.827,109.664 366.008,109.953 365.829 C 110.218 365.665,110.779 366.397,111.371 367.679 C 111.910 368.846,112.933 370.430,113.644 371.200 C 114.356 371.970,114.928 372.690,114.917 372.800 C 114.849 373.448,115.655 374.729,116.556 375.406 C 117.130 375.837,117.600 376.435,117.600 376.734 C 117.600 377.034,118.140 377.783,118.800 378.400 C 119.460 379.017,120.000 379.730,120.000 379.986 C 120.000 380.242,120.900 381.329,122.000 382.400 C 123.100 383.471,124.000 384.544,124.000 384.784 C 124.000 385.334,137.499 398.800,138.050 398.800 C 138.274 398.800,138.727 399.070,139.057 399.400 C 139.786 400.129,148.000 400.291,148.000 399.576 C 148.000 399.343,148.184 399.267,148.410 399.406 C 148.635 399.545,148.770 399.449,148.710 399.193 C 148.649 398.936,148.952 398.517,149.383 398.263 C 150.782 397.436,151.200 396.876,151.200 395.829 C 151.200 395.263,151.380 394.800,151.600 394.800 C 151.820 394.800,152.000 394.350,152.000 393.800 C 152.000 393.250,151.820 392.800,151.600 392.800 C 151.380 392.800,151.200 392.346,151.200 391.791 C 151.200 390.741,147.289 386.400,146.342 386.400 C 146.081 386.400,145.977 386.289,146.113 386.154 C 146.395 385.871,142.538 382.000,141.973 382.000 C 141.768 382.000,141.600 381.806,141.600 381.568 C 141.600 381.331,140.790 380.327,139.800 379.337 C 138.810 378.347,138.000 377.371,138.000 377.168 C 138.000 376.966,137.860 376.800,137.689 376.800 C 137.220 376.800,134.800 374.502,134.800 374.057 C 134.800 373.495,132.117 370.816,131.836 371.097 C 131.706 371.227,131.600 370.893,131.600 370.355 C 131.600 369.817,131.240 369.117,130.800 368.800 C 130.360 368.483,130.000 367.975,130.000 367.672 C 130.000 367.369,129.460 366.617,128.800 366.000 C 128.140 365.383,127.600 364.581,127.600 364.216 C 127.600 363.851,127.420 363.664,127.200 363.800 C 126.980 363.936,126.800 363.767,126.800 363.424 C 126.800 363.081,126.664 362.800,126.498 362.800 C 126.331 362.800,125.960 362.215,125.672 361.500 C 124.858 359.478,124.513 358.991,123.988 359.116 C 123.693 359.187,123.597 358.985,123.744 358.601 C 123.885 358.233,123.739 357.875,123.393 357.742 C 123.067 357.617,122.799 357.219,122.799 356.857 C 122.798 356.496,122.168 354.950,121.399 353.423 C 120.629 351.896,120.000 350.411,120.000 350.123 C 120.000 349.835,119.820 349.600,119.600 349.600 C 119.380 349.600,119.200 349.240,119.200 348.800 C 119.200 348.360,119.020 348.000,118.800 348.000 C 118.580 348.000,118.400 347.820,118.400 347.600 C 118.400 347.369,119.659 347.200,121.376 347.200 C 123.013 347.200,124.464 347.020,124.600 346.800 C 124.736 346.580,125.827 346.400,127.024 346.400 C 128.221 346.400,129.200 346.220,129.200 346.000 C 129.200 345.780,129.740 345.600,130.400 345.600 C 131.060 345.600,131.600 345.420,131.600 345.200 C 131.600 344.980,131.960 344.800,132.400 344.800 C 132.840 344.800,133.200 344.620,133.200 344.400 C 133.200 344.180,133.560 344.000,134.000 344.000 C 134.440 344.000,134.800 343.820,134.800 343.600 C 134.800 343.380,135.148 343.200,135.573 343.200 C 135.998 343.200,136.460 342.840,136.600 342.400 C 136.740 341.960,137.005 341.600,137.190 341.600 C 137.885 341.600,142.400 336.743,142.400 335.995 C 142.400 335.778,142.580 335.600,142.800 335.600 C 143.020 335.600,143.200 335.240,143.200 334.800 C 143.200 334.360,143.380 334.000,143.600 334.000 C 143.820 334.000,144.000 333.460,144.000 332.800 C 144.000 332.140,144.180 331.600,144.400 331.600 C 144.620 331.600,144.800 330.700,144.800 329.600 C 144.800 328.500,144.980 327.600,145.200 327.600 C 145.426 327.600,145.600 326.467,145.600 325.000 C 145.600 323.533,145.426 322.400,145.200 322.400 C 144.978 322.400,144.800 321.333,144.800 320.000 C 144.800 318.667,144.622 317.600,144.400 317.600 C 144.180 317.600,144.000 316.880,144.000 316.000 C 144.000 315.120,143.865 314.399,143.700 314.397 C 143.253 314.392,142.400 312.374,142.400 311.320 C 142.400 310.814,142.580 310.400,142.800 310.400 C 143.020 310.400,143.200 310.040,143.200 309.600 C 143.200 309.160,143.380 308.800,143.600 308.800 C 143.820 308.800,144.000 308.249,144.000 307.576 C 144.000 306.863,144.167 306.456,144.400 306.600 C 144.647 306.752,144.800 306.071,144.800 304.824 C 144.800 303.711,144.980 302.800,145.200 302.800 C 145.422 302.800,145.600 301.733,145.600 300.400 C 145.600 299.067,145.422 298.000,145.200 298.000 C 144.971 298.000,144.800 296.800,144.800 295.200 C 144.800 293.600,144.629 292.400,144.400 292.400 C 144.180 292.400,144.000 291.950,144.000 291.400 C 144.000 290.850,143.820 290.400,143.600 290.400 C 143.380 290.400,143.200 289.860,143.200 289.200 C 143.200 288.540,143.065 287.999,142.900 287.997 C 142.541 287.993,141.600 286.056,141.600 285.320 C 141.600 285.034,141.399 284.800,141.153 284.800 C 140.904 284.800,140.799 284.447,140.916 284.000 C 141.052 283.480,140.928 283.200,140.563 283.200 C 140.253 283.200,140.000 282.975,140.000 282.700 C 139.999 282.425,139.549 281.677,139.000 281.038 C 138.450 280.399,138.000 279.635,138.000 279.341 C 138.000 278.488,141.746 274.279,142.147 274.681 C 142.286 274.820,142.400 274.453,142.400 273.867 C 142.400 273.280,142.580 272.800,142.800 272.800 C 143.020 272.800,143.200 272.530,143.200 272.200 C 143.200 271.870,143.380 271.600,143.600 271.600 C 143.820 271.600,144.000 271.060,144.000 270.400 C 144.000 269.740,144.180 269.200,144.400 269.200 C 144.620 269.200,144.800 268.480,144.800 267.600 C 144.800 266.720,144.980 266.000,145.200 266.000 C 145.429 266.000,145.600 264.792,145.600 263.176 C 145.600 261.396,145.452 260.444,145.200 260.600 C 144.948 260.756,144.800 259.804,144.800 258.024 C 144.800 256.408,144.629 255.200,144.400 255.200 C 144.180 255.200,144.000 254.660,144.000 254.000 C 144.000 253.340,143.820 252.800,143.600 252.800 C 143.380 252.800,143.200 252.260,143.200 251.600 C 143.200 250.940,143.020 250.400,142.800 250.400 C 142.580 250.400,142.400 250.040,142.400 249.600 C 142.400 249.160,142.220 248.800,142.000 248.800 C 141.780 248.800,141.600 248.440,141.600 248.000 C 141.600 247.560,141.420 247.200,141.200 247.200 C 140.980 247.200,140.800 246.840,140.800 246.400 C 140.800 245.960,140.620 245.600,140.400 245.600 C 140.180 245.600,140.000 245.356,140.000 245.058 C 140.000 244.761,139.550 244.031,139.000 243.438 C 137.664 241.996,137.733 241.475,139.500 239.660 C 141.511 237.596,142.400 236.472,142.400 235.995 C 142.400 235.778,142.580 235.600,142.800 235.600 C 143.020 235.600,143.200 235.240,143.200 234.800 C 143.200 234.360,143.380 234.000,143.600 234.000 C 143.820 234.000,144.000 233.460,144.000 232.800 C 144.000 232.140,144.180 231.600,144.400 231.600 C 144.620 231.600,144.800 230.880,144.800 230.000 C 144.800 229.120,144.980 228.400,145.200 228.400 C 145.431 228.400,145.600 227.133,145.600 225.400 C 145.600 223.667,145.431 222.400,145.200 222.400 C 144.978 222.400,144.800 221.333,144.800 220.000 C 144.800 218.667,144.622 217.600,144.400 217.600 C 144.180 217.600,144.000 216.880,144.000 216.000 C 144.000 215.120,143.865 214.399,143.700 214.397 C 143.294 214.393,142.400 212.414,142.400 211.520 C 142.400 211.124,142.220 210.800,142.000 210.800 C 141.780 210.800,141.600 210.530,141.600 210.200 C 141.600 209.870,141.420 209.600,141.200 209.600 C 140.980 209.600,140.800 209.330,140.800 209.000 C 140.800 208.670,140.620 208.400,140.400 208.400 C 140.180 208.400,140.000 208.083,140.000 207.696 C 140.000 207.309,139.595 206.544,139.100 205.996 C 138.605 205.448,137.948 204.511,137.640 203.914 C 137.332 203.316,136.927 202.922,136.740 203.037 C 136.553 203.153,136.400 202.967,136.400 202.624 C 136.400 202.281,136.241 202.000,136.047 202.000 C 135.699 202.000,134.080 200.451,131.046 197.214 C 130.169 196.279,129.253 195.648,128.946 195.766 C 128.645 195.881,128.400 195.723,128.400 195.414 C 128.400 195.106,128.040 194.740,127.600 194.600 C 127.160 194.460,126.800 194.088,126.800 193.773 C 126.800 193.458,126.459 193.200,126.043 193.200 C 125.626 193.200,125.182 192.930,125.055 192.600 C 124.929 192.270,124.549 192.000,124.213 192.000 C 123.876 192.000,123.600 191.820,123.600 191.600 C 123.600 191.380,123.330 191.200,123.000 191.200 C 122.670 191.200,122.400 191.020,122.400 190.800 C 122.400 190.580,122.080 190.400,121.688 190.400 C 121.297 190.400,120.717 190.040,120.400 189.600 C 120.083 189.160,119.629 188.800,119.391 188.800 C 118.701 188.800,116.807 187.831,116.803 187.476 C 116.801 187.298,116.635 187.255,116.432 187.380 C 116.230 187.505,115.821 187.381,115.523 187.104 C 115.225 186.827,114.715 186.542,114.390 186.470 C 114.066 186.399,113.740 186.174,113.667 185.970 C 113.593 185.767,113.188 185.600,112.767 185.600 C 112.345 185.600,112.000 185.420,112.000 185.200 C 112.000 184.980,111.460 184.800,110.800 184.800 C 110.140 184.800,109.600 184.620,109.600 184.400 C 109.600 184.180,109.330 184.000,109.000 184.000 C 108.670 184.000,108.400 183.820,108.400 183.600 C 108.400 183.380,107.770 183.200,107.000 183.200 C 106.230 183.200,105.600 183.020,105.600 182.800 C 105.600 182.580,105.341 182.400,105.024 182.400 C 103.556 182.400,105.503 178.554,107.031 178.434 C 107.278 178.414,107.386 177.889,107.285 177.200 C 107.163 176.367,107.276 176.000,107.655 176.000 C 108.113 176.000,108.184 166.136,108.097 114.000 L 107.995 52.000 193.597 52.000 L 279.200 52.000 279.200 107.576 C 279.200 144.196,279.336 163.237,279.600 163.400 C 279.820 163.536,280.002 164.042,280.005 164.524 C 280.013 165.653,284.395 170.000,285.525 170.000 C 285.981 170.000,286.464 170.180,286.600 170.400 C 286.736 170.620,287.197 170.800,287.624 170.800 C 288.051 170.800,288.400 170.620,288.400 170.400 C 288.400 170.180,288.805 170.000,289.300 170.000 C 290.297 169.999,292.111 168.588,292.515 167.500 C 292.658 167.115,292.973 166.800,293.216 166.800 C 293.991 166.800,294.800 165.690,294.800 164.629 C 294.800 164.063,294.980 163.600,295.200 163.600 C 295.465 163.600,295.600 138.733,295.600 89.800 C 295.600 40.867,295.465 16.000,295.200 16.000 C 294.980 16.000,294.800 15.280,294.800 14.400 C 294.800 13.520,294.620 12.800,294.400 12.800 C 294.180 12.800,294.000 12.361,294.000 11.824 C 294.000 11.287,293.820 10.736,293.600 10.600 C 293.380 10.464,293.200 9.973,293.200 9.510 C 293.200 9.046,293.089 8.778,292.952 8.914 C 292.644 9.223,291.600 8.216,291.600 7.611 C 291.600 6.937,287.567 2.826,286.200 2.108 C 285.540 1.761,284.790 1.190,284.532 0.839 C 284.074 0.213,106.225 -0.324,103.806 0.293 M278.453 15.261 C 279.138 16.051,279.200 16.927,279.200 25.861 L 279.200 35.600 193.600 35.600 L 108.000 35.600 108.000 26.003 C 108.000 16.715,108.028 16.374,108.872 15.403 L 109.744 14.400 193.725 14.400 L 277.706 14.400 278.453 15.261 M329.400 148.400 C 329.264 148.620,328.443 148.800,327.576 148.800 C 326.709 148.800,326.000 148.980,326.000 149.200 C 326.000 149.420,325.370 149.600,324.600 149.600 C 323.830 149.600,323.200 149.780,323.200 150.000 C 323.200 150.220,322.660 150.400,322.000 150.400 C 321.340 150.400,320.799 150.535,320.797 150.700 C 320.793 151.051,318.863 152.000,318.154 152.000 C 317.886 152.000,317.607 152.167,317.533 152.370 C 317.460 152.574,317.134 152.799,316.810 152.870 C 316.485 152.941,315.975 153.227,315.677 153.504 C 315.379 153.781,314.970 153.905,314.768 153.780 C 314.565 153.655,314.400 153.710,314.400 153.902 C 314.400 154.094,313.766 154.499,312.991 154.803 C 312.217 155.107,311.289 155.681,310.929 156.078 C 310.570 156.475,309.914 156.800,309.471 156.800 C 309.029 156.800,308.778 156.911,308.914 157.048 C 309.269 157.403,308.174 158.400,307.429 158.400 C 307.083 158.400,306.800 158.591,306.800 158.824 C 306.800 159.057,306.620 159.136,306.400 159.000 C 306.180 158.864,306.000 159.044,306.000 159.400 C 306.000 159.756,305.820 159.936,305.600 159.800 C 305.380 159.664,305.200 159.853,305.200 160.219 C 305.200 160.640,304.984 160.803,304.615 160.661 C 304.277 160.531,303.708 160.845,303.268 161.405 C 302.849 161.937,302.392 162.259,302.253 162.120 C 302.114 161.981,302.000 162.091,302.000 162.365 C 302.000 162.793,300.211 164.658,296.335 168.272 C 294.799 169.705,294.194 170.550,294.318 171.090 C 294.382 171.370,294.147 171.600,293.794 171.600 C 293.441 171.600,293.264 171.780,293.400 172.000 C 293.536 172.220,293.367 172.400,293.024 172.400 C 292.681 172.400,292.400 172.567,292.400 172.771 C 292.400 172.976,292.175 173.381,291.900 173.671 C 291.625 173.962,291.148 174.689,290.840 175.286 C 290.532 175.884,290.127 176.278,289.940 176.163 C 289.753 176.047,289.600 176.244,289.600 176.600 C 289.600 176.956,289.420 177.136,289.200 177.000 C 288.980 176.864,288.800 177.096,288.800 177.514 C 288.800 177.933,288.440 178.602,288.000 179.000 C 287.560 179.398,287.200 179.966,287.200 180.262 C 287.200 180.558,286.999 180.800,286.753 180.800 C 286.508 180.800,286.383 181.115,286.477 181.500 C 286.652 182.220,285.451 183.718,285.033 183.300 C 284.905 183.172,284.800 183.331,284.800 183.654 C 284.800 184.442,283.875 186.393,283.500 186.397 C 283.335 186.399,283.200 186.760,283.200 187.200 C 283.200 187.640,283.020 188.000,282.800 188.000 C 282.580 188.000,282.400 188.360,282.400 188.800 C 282.400 189.240,282.208 189.600,281.973 189.600 C 281.728 189.600,281.654 189.941,281.800 190.400 C 281.980 190.968,281.872 191.200,281.427 191.200 C 281.073 191.200,280.800 191.538,280.800 191.976 C 280.800 192.403,280.620 192.864,280.400 193.000 C 280.180 193.136,280.000 193.687,280.000 194.224 C 280.000 194.761,279.820 195.200,279.600 195.200 C 279.336 195.200,279.199 210.769,279.197 241.100 L 279.194 287.000 278.117 287.500 C 277.525 287.775,276.536 288.000,275.920 288.000 C 275.304 288.000,274.800 288.180,274.800 288.400 C 274.800 288.620,274.260 288.800,273.600 288.800 C 272.940 288.800,272.400 288.980,272.400 289.200 C 272.400 289.420,272.040 289.600,271.600 289.600 C 271.160 289.600,270.800 289.780,270.800 290.000 C 270.800 290.220,270.440 290.400,270.000 290.400 C 269.560 290.400,269.200 290.580,269.200 290.800 C 269.200 291.020,268.840 291.200,268.400 291.200 C 267.960 291.200,267.600 291.380,267.600 291.600 C 267.600 291.820,267.259 292.000,266.843 292.000 C 266.426 292.000,265.982 292.270,265.855 292.600 C 265.729 292.930,265.268 293.200,264.831 293.200 C 263.997 293.200,261.923 294.989,262.309 295.376 C 262.432 295.499,262.223 295.600,261.843 295.600 C 261.463 295.600,261.264 295.780,261.400 296.000 C 261.536 296.220,261.457 296.400,261.224 296.400 C 260.991 296.400,260.800 296.782,260.800 297.249 C 260.800 297.964,260.704 298.018,260.191 297.592 C 259.680 297.168,259.623 297.195,259.840 297.760 C 260.012 298.209,259.916 298.394,259.549 298.316 C 259.247 298.252,259.047 298.430,259.104 298.711 C 259.161 298.992,258.912 299.336,258.551 299.474 C 257.616 299.833,254.400 303.124,254.400 303.722 C 254.400 303.998,254.040 304.483,253.600 304.800 C 253.160 305.117,252.800 305.697,252.800 306.088 C 252.800 306.480,252.620 306.800,252.400 306.800 C 252.180 306.800,252.000 307.141,252.000 307.557 C 252.000 307.974,251.750 308.410,251.444 308.528 C 250.837 308.761,249.600 310.998,249.600 311.861 C 249.600 312.158,249.420 312.400,249.200 312.400 C 248.980 312.400,248.800 312.850,248.800 313.400 C 248.800 313.950,248.620 314.400,248.400 314.400 C 248.180 314.400,248.000 315.030,248.000 315.800 C 248.000 316.570,247.865 317.201,247.700 317.203 C 247.294 317.207,246.400 319.186,246.400 320.080 C 246.400 320.476,246.220 320.800,246.000 320.800 C 245.780 320.800,245.600 321.505,245.600 322.367 C 245.600 323.228,245.427 323.993,245.216 324.067 C 245.005 324.140,244.709 325.685,244.559 327.500 C 244.362 329.877,244.133 330.800,243.742 330.800 C 243.346 330.800,243.200 331.446,243.200 333.200 C 243.200 334.639,243.029 335.600,242.772 335.600 C 242.490 335.600,242.387 336.817,242.472 339.163 C 242.542 341.123,242.465 342.642,242.300 342.540 C 241.936 342.313,241.896 361.527,242.254 364.144 C 242.421 365.363,242.704 366.000,243.078 366.000 C 243.391 366.000,243.536 366.180,243.400 366.400 C 243.264 366.620,243.356 366.800,243.605 366.800 C 244.215 366.800,245.224 367.842,244.914 368.152 C 244.778 368.289,244.923 368.400,245.237 368.400 C 245.551 368.400,246.032 368.760,246.307 369.200 C 246.867 370.096,253.600 370.451,253.600 369.584 C 253.600 369.072,256.599 366.000,257.099 366.000 C 257.299 366.000,257.382 365.462,257.286 364.805 C 257.173 364.033,257.304 363.535,257.655 363.401 C 258.330 363.142,258.310 358.945,257.635 359.100 C 257.017 359.242,257.032 348.123,257.650 347.917 C 257.952 347.816,258.076 346.314,258.029 343.320 C 257.985 340.562,258.118 338.774,258.379 338.613 C 258.611 338.470,258.800 337.373,258.800 336.176 C 258.800 334.979,258.980 334.000,259.200 334.000 C 259.420 334.000,259.600 333.100,259.600 332.000 C 259.600 330.900,259.780 330.000,260.000 330.000 C 260.220 330.000,260.400 329.280,260.400 328.400 C 260.400 327.520,260.580 326.800,260.800 326.800 C 261.020 326.800,261.200 326.080,261.200 325.200 C 261.200 324.320,261.335 323.599,261.500 323.597 C 261.906 323.593,262.800 321.614,262.800 320.720 C 262.800 320.324,262.980 320.000,263.200 320.000 C 263.420 320.000,263.600 319.766,263.600 319.480 C 263.600 318.720,264.546 316.807,264.924 316.803 C 265.102 316.801,265.145 316.635,265.020 316.432 C 264.895 316.230,265.064 315.793,265.396 315.461 C 265.728 315.129,266.000 314.574,266.000 314.229 C 266.000 313.883,266.180 313.600,266.400 313.600 C 266.620 313.600,266.800 313.328,266.800 312.996 C 266.800 312.664,267.340 311.828,268.000 311.137 C 268.660 310.446,269.200 309.715,269.200 309.512 C 269.200 308.988,270.254 308.000,270.814 308.000 C 271.073 308.000,271.639 307.550,272.071 307.000 C 272.504 306.450,273.205 306.000,273.629 306.000 C 274.053 306.000,274.400 305.747,274.400 305.437 C 274.400 305.072,274.680 304.948,275.200 305.084 C 275.647 305.201,276.000 305.096,276.000 304.847 C 276.000 304.601,276.360 304.400,276.800 304.400 C 277.240 304.400,277.600 304.220,277.600 304.000 C 277.600 303.780,278.320 303.600,279.200 303.600 C 280.080 303.600,280.800 303.420,280.800 303.200 C 280.800 302.965,282.192 302.800,284.176 302.800 C 286.033 302.800,287.664 302.620,287.800 302.400 C 287.936 302.180,288.787 302.000,289.690 302.000 C 290.594 302.000,291.219 301.886,291.080 301.747 C 290.941 301.608,291.721 300.619,292.814 299.549 C 294.149 298.241,294.800 297.276,294.800 296.602 C 294.800 296.051,294.980 295.600,295.200 295.600 C 295.465 295.600,295.600 278.800,295.600 246.000 C 295.600 213.200,295.735 196.400,296.000 196.400 C 296.220 196.400,296.400 196.040,296.400 195.600 C 296.400 195.160,296.580 194.800,296.800 194.800 C 297.020 194.800,297.200 194.440,297.200 194.000 C 297.200 193.560,297.380 193.200,297.600 193.200 C 297.820 193.200,298.000 192.917,298.000 192.571 C 298.000 191.930,299.184 190.473,299.219 191.071 C 299.230 191.252,299.519 190.590,299.862 189.600 C 300.205 188.610,300.827 187.478,301.243 187.084 C 301.659 186.691,302.000 186.146,302.000 185.873 C 302.000 185.600,302.360 185.117,302.800 184.800 C 303.240 184.483,303.600 184.027,303.600 183.787 C 303.600 183.546,304.125 182.846,304.768 182.231 C 305.410 181.616,306.043 180.682,306.175 180.156 C 306.307 179.630,306.692 179.200,307.031 179.200 C 307.370 179.200,307.536 179.020,307.400 178.800 C 307.264 178.580,307.433 178.400,307.776 178.400 C 308.119 178.400,308.400 178.235,308.400 178.033 C 308.400 177.468,311.469 174.402,311.751 174.685 C 311.888 174.821,312.000 174.633,312.000 174.267 C 312.000 173.888,312.315 173.600,312.730 173.600 C 313.132 173.600,313.883 173.150,314.400 172.600 C 314.917 172.050,315.556 171.600,315.821 171.600 C 316.085 171.600,316.534 171.321,316.816 170.980 C 317.099 170.639,318.111 170.005,319.065 169.570 C 320.019 169.136,320.800 168.594,320.800 168.366 C 320.800 168.139,320.980 168.064,321.200 168.200 C 321.420 168.336,321.600 168.257,321.600 168.024 C 321.600 167.791,321.960 167.600,322.400 167.600 C 323.310 167.600,323.709 327.238,322.800 327.800 C 322.580 327.936,322.400 328.656,322.400 329.400 C 322.400 330.144,322.220 330.864,322.000 331.000 C 321.780 331.136,321.600 331.867,321.600 332.624 C 321.600 333.381,321.420 334.000,321.200 334.000 C 320.980 334.000,320.800 334.540,320.800 335.200 C 320.800 335.860,320.620 336.400,320.400 336.400 C 320.180 336.400,320.000 337.120,320.000 338.000 C 320.000 338.880,319.820 339.600,319.600 339.600 C 319.380 339.600,319.200 340.140,319.200 340.800 C 319.200 341.460,319.020 342.000,318.800 342.000 C 318.580 342.000,318.400 342.551,318.400 343.224 C 318.400 343.937,318.233 344.344,318.000 344.200 C 317.773 344.060,317.600 344.396,317.600 344.976 C 317.600 345.539,317.420 346.000,317.200 346.000 C 316.980 346.000,316.800 346.324,316.800 346.720 C 316.800 347.614,315.906 349.593,315.500 349.597 C 315.335 349.599,315.200 350.230,315.200 351.000 C 315.200 351.770,315.065 352.401,314.900 352.401 C 314.735 352.402,314.150 353.392,313.600 354.600 C 313.050 355.808,312.454 356.798,312.276 356.799 C 312.098 356.799,312.055 356.965,312.180 357.168 C 312.305 357.370,312.171 357.775,311.881 358.068 C 311.231 358.726,310.650 360.047,310.744 360.654 C 310.783 360.904,310.544 361.213,310.214 361.339 C 309.884 361.466,309.711 361.823,309.830 362.133 C 309.949 362.443,309.780 362.799,309.454 362.924 C 309.064 363.074,308.940 363.467,309.090 364.076 C 309.216 364.584,309.180 364.874,309.011 364.719 C 308.603 364.345,307.600 365.378,307.600 366.171 C 307.600 366.517,307.420 366.800,307.200 366.800 C 306.980 366.800,306.800 367.120,306.800 367.512 C 306.800 367.903,306.440 368.483,306.000 368.800 C 305.560 369.117,305.200 369.625,305.200 369.928 C 305.200 370.231,304.660 370.983,304.000 371.600 C 303.340 372.217,302.798 372.964,302.796 373.260 C 302.794 373.557,302.254 374.225,301.596 374.745 C 300.938 375.265,300.400 376.040,300.400 376.469 C 300.400 376.897,300.265 377.185,300.100 377.108 C 299.712 376.929,297.232 379.499,297.517 379.784 C 297.636 379.903,297.403 380.000,297.000 380.000 C 296.597 380.000,296.387 380.120,296.534 380.268 C 296.681 380.415,296.544 380.820,296.229 381.168 C 295.915 381.515,295.689 381.980,295.729 382.200 C 295.768 382.420,295.211 382.791,294.490 383.023 C 293.770 383.256,293.305 383.571,293.457 383.723 C 293.609 383.876,293.433 384.000,293.067 384.000 C 292.700 384.000,292.400 384.198,292.400 384.440 C 292.400 384.682,291.050 386.200,289.400 387.813 C 287.579 389.593,286.400 391.070,286.400 391.573 C 286.400 392.028,286.220 392.400,286.000 392.400 C 285.780 392.400,285.600 392.940,285.600 393.600 C 285.600 394.260,285.780 394.800,286.000 394.800 C 286.220 394.800,286.400 395.264,286.400 395.831 C 286.400 396.518,286.954 397.395,288.058 398.455 L 289.715 400.048 294.158 399.862 C 299.063 399.657,299.638 399.586,299.407 399.211 C 299.320 399.070,299.903 398.425,300.703 397.778 C 301.503 397.130,303.067 395.630,304.179 394.445 C 305.290 393.260,306.532 392.000,306.938 391.645 C 309.848 389.102,312.800 385.868,312.800 385.224 C 312.800 384.800,313.141 384.346,313.557 384.214 C 313.973 384.082,314.406 383.619,314.519 383.187 C 314.633 382.754,315.023 382.400,315.386 382.400 C 315.750 382.400,315.945 382.235,315.820 382.032 C 315.695 381.830,315.864 381.393,316.196 381.061 C 316.528 380.729,316.800 380.264,316.800 380.029 C 316.800 379.793,316.980 379.600,317.200 379.600 C 317.420 379.600,317.600 379.370,317.600 379.088 C 317.600 378.807,317.960 378.317,318.400 378.000 C 318.840 377.683,319.200 377.186,319.200 376.895 C 319.200 376.604,319.563 375.977,320.006 375.501 C 320.449 375.026,320.750 374.450,320.674 374.222 C 320.598 373.994,320.942 373.489,321.437 373.099 C 321.933 372.709,322.457 371.851,322.602 371.192 C 322.747 370.533,323.210 369.809,323.633 369.583 C 324.055 369.357,324.400 368.818,324.400 368.386 C 324.400 367.954,324.580 367.600,324.800 367.600 C 325.020 367.600,325.200 367.240,325.200 366.800 C 325.200 366.360,325.380 366.000,325.600 366.000 C 325.820 366.000,326.000 365.640,326.000 365.200 C 326.000 364.760,326.180 364.400,326.400 364.400 C 326.620 364.400,326.800 364.040,326.800 363.600 C 326.800 363.160,326.980 362.800,327.200 362.800 C 327.420 362.800,327.600 362.440,327.600 362.000 C 327.600 361.560,327.780 361.200,328.000 361.200 C 328.220 361.200,328.400 360.840,328.400 360.400 C 328.400 359.960,328.535 359.599,328.700 359.597 C 329.056 359.593,330.000 357.659,330.000 356.932 C 330.000 356.653,330.360 355.783,330.800 355.000 C 331.240 354.217,331.600 353.317,331.600 353.000 C 331.600 352.683,331.960 351.783,332.400 351.000 C 332.840 350.217,333.200 349.232,333.200 348.811 C 333.200 348.391,333.380 347.936,333.600 347.800 C 333.820 347.664,334.000 347.113,334.000 346.576 C 334.000 346.039,334.180 345.600,334.400 345.600 C 334.620 345.600,334.800 345.060,334.800 344.400 C 334.800 343.740,334.980 343.200,335.200 343.200 C 335.420 343.200,335.600 342.671,335.600 342.024 C 335.600 341.377,335.780 340.736,336.000 340.600 C 336.220 340.464,336.400 339.834,336.400 339.200 C 336.400 338.566,336.550 337.955,336.733 337.841 C 336.917 337.728,336.987 337.094,336.890 336.432 C 336.777 335.664,336.946 334.997,337.357 334.586 C 337.711 334.232,338.000 333.426,338.000 332.795 C 338.000 332.164,338.180 331.536,338.400 331.400 C 338.620 331.264,338.800 330.184,338.800 329.000 C 338.800 327.816,338.980 326.736,339.200 326.600 C 339.465 326.436,339.600 297.470,339.600 241.000 C 339.600 184.530,339.465 155.564,339.200 155.400 C 338.980 155.264,338.800 154.747,338.800 154.251 C 338.800 153.220,334.412 148.800,333.387 148.800 C 333.038 148.800,332.864 148.620,333.000 148.400 C 333.151 148.156,332.545 148.000,331.447 148.000 C 330.457 148.000,329.536 148.180,329.400 148.400 M93.056 178.400 C 93.355 178.400,93.602 178.535,93.603 178.700 C 93.605 178.865,94.270 179.699,95.080 180.554 L 96.552 182.108 95.308 183.220 C 94.624 183.831,94.170 184.437,94.299 184.566 C 94.428 184.695,94.223 184.800,93.843 184.800 C 93.463 184.800,93.264 184.980,93.400 185.200 C 93.536 185.420,93.367 185.600,93.024 185.600 C 92.645 185.600,92.398 185.953,92.396 186.500 C 92.393 186.995,92.275 188.103,92.133 188.962 C 91.966 189.975,92.018 190.436,92.280 190.274 C 92.527 190.122,92.612 190.403,92.498 190.997 C 92.315 191.956,93.132 193.200,93.944 193.200 C 94.165 193.200,94.460 193.560,94.600 194.000 C 94.740 194.440,95.142 194.800,95.494 194.800 C 95.845 194.800,96.022 194.911,95.886 195.048 C 95.531 195.403,96.626 196.400,97.371 196.400 C 97.717 196.400,98.000 196.580,98.000 196.800 C 98.000 197.020,98.529 197.200,99.176 197.200 C 99.823 197.200,100.464 197.380,100.600 197.600 C 100.736 197.820,101.287 198.000,101.824 198.000 C 102.361 198.000,102.800 198.180,102.800 198.400 C 102.800 198.620,103.261 198.800,103.824 198.800 C 104.404 198.800,104.740 198.973,104.600 199.200 C 104.464 199.420,104.723 199.600,105.176 199.600 C 105.629 199.600,106.000 199.780,106.000 200.000 C 106.000 200.220,106.540 200.400,107.200 200.400 C 107.860 200.400,108.400 200.580,108.400 200.800 C 108.400 201.020,108.771 201.200,109.224 201.200 C 109.677 201.200,109.936 201.380,109.800 201.600 C 109.664 201.820,109.896 202.000,110.314 202.000 C 110.733 202.000,111.402 202.360,111.800 202.800 C 112.198 203.240,112.766 203.600,113.062 203.600 C 113.358 203.600,113.600 203.791,113.600 204.024 C 113.600 204.257,113.742 204.359,113.916 204.252 C 114.196 204.079,116.997 205.708,118.283 206.793 C 118.549 207.017,119.044 207.200,119.383 207.200 C 119.722 207.200,120.000 207.500,120.000 207.867 C 120.000 208.233,120.107 208.426,120.238 208.296 C 120.749 207.784,126.566 214.208,126.171 214.847 C 126.051 215.041,126.254 215.200,126.623 215.200 C 127.096 215.200,127.232 215.435,127.084 216.000 C 126.943 216.540,127.072 216.800,127.480 216.800 C 127.849 216.800,127.997 217.030,127.859 217.389 C 127.735 217.714,127.923 218.141,128.276 218.339 C 128.688 218.569,128.840 219.005,128.697 219.549 C 128.575 220.017,128.638 220.400,128.837 220.400 C 129.037 220.400,129.200 222.200,129.200 224.400 C 129.200 226.607,129.033 228.400,128.827 228.400 C 128.622 228.400,128.351 228.724,128.225 229.120 C 127.970 229.924,125.909 230.800,124.272 230.800 C 123.586 230.800,123.200 231.016,123.200 231.400 C 123.200 231.875,122.627 232.000,120.443 232.000 C 118.361 232.000,117.629 231.853,117.455 231.400 C 117.290 230.968,116.613 230.800,115.036 230.800 C 113.832 230.800,112.736 230.620,112.600 230.400 C 112.464 230.180,111.733 230.000,110.976 230.000 C 110.219 230.000,109.600 229.841,109.600 229.646 C 109.600 229.451,108.613 229.169,107.406 229.018 C 106.200 228.867,105.109 228.577,104.983 228.372 C 104.856 228.167,104.384 228.000,103.934 228.000 C 103.422 228.000,103.190 227.803,103.316 227.475 C 103.461 227.096,103.197 226.998,102.359 227.121 C 101.489 227.248,101.200 227.130,101.200 226.645 C 101.200 226.224,100.853 226.000,100.200 226.000 C 99.650 226.000,99.200 225.828,99.200 225.618 C 99.200 225.408,98.570 225.118,97.800 224.974 C 97.030 224.829,96.400 224.551,96.400 224.355 C 96.400 224.160,96.080 224.000,95.688 224.000 C 95.297 224.000,94.717 223.640,94.400 223.200 C 94.083 222.760,93.543 222.400,93.200 222.400 C 92.857 222.400,92.317 222.040,92.000 221.600 C 91.683 221.160,91.143 220.800,90.800 220.800 C 90.457 220.800,89.917 220.440,89.600 220.000 C 89.283 219.560,88.882 219.200,88.708 219.200 C 87.996 219.200,81.152 212.581,81.503 212.231 C 81.629 212.104,81.523 212.000,81.267 212.000 C 81.010 212.000,80.800 211.764,80.800 211.475 C 80.800 211.187,80.440 210.564,80.000 210.092 C 79.560 209.620,79.200 209.046,79.200 208.817 C 79.200 208.588,79.020 208.400,78.800 208.400 C 78.580 208.400,78.400 208.040,78.400 207.600 C 78.400 207.160,78.220 206.800,78.000 206.800 C 77.780 206.800,77.600 206.260,77.600 205.600 C 77.600 204.940,77.420 204.400,77.200 204.400 C 76.952 204.400,76.800 202.267,76.800 198.800 C 76.800 195.333,76.952 193.200,77.200 193.200 C 77.420 193.200,77.600 192.480,77.600 191.600 C 77.600 190.720,77.780 190.000,78.000 190.000 C 78.220 190.000,78.400 189.730,78.400 189.400 C 78.400 189.070,78.580 188.800,78.800 188.800 C 79.020 188.800,79.200 188.260,79.200 187.600 C 79.200 186.940,79.380 186.400,79.600 186.400 C 79.820 186.400,80.000 186.068,80.000 185.662 C 80.000 185.256,80.360 184.598,80.800 184.200 C 81.240 183.802,81.600 183.306,81.600 183.098 C 81.600 182.891,82.141 182.216,82.802 181.598 C 83.568 180.883,83.915 180.244,83.759 179.838 C 83.608 179.443,83.726 179.200,84.069 179.200 C 84.374 179.200,84.883 178.840,85.200 178.400 C 85.517 177.960,85.979 177.600,86.226 177.600 C 86.474 177.600,87.002 177.240,87.400 176.800 C 87.798 176.360,88.332 176.000,88.587 176.000 C 88.841 176.000,89.445 175.631,89.930 175.180 C 90.414 174.728,90.988 174.469,91.205 174.603 C 91.422 174.737,91.625 174.522,91.656 174.124 C 91.686 173.726,91.891 174.525,92.112 175.900 C 92.375 177.546,92.698 178.400,93.056 178.400 M82.567 233.800 C 83.200 234.240,83.916 234.600,84.159 234.600 C 84.750 234.600,85.914 235.723,85.713 236.100 C 85.625 236.265,85.841 236.400,86.193 236.400 C 86.545 236.400,87.220 236.760,87.692 237.200 C 88.164 237.640,88.787 238.000,89.075 238.000 C 89.364 238.000,89.600 238.180,89.600 238.400 C 89.600 238.620,89.876 238.800,90.214 238.800 C 90.552 238.800,91.304 239.112,91.886 239.493 C 92.468 239.875,93.137 240.209,93.372 240.236 C 94.345 240.348,95.600 240.917,95.600 241.247 C 95.600 241.441,95.949 241.600,96.376 241.600 C 96.803 241.600,97.264 241.780,97.400 242.000 C 97.536 242.220,98.177 242.400,98.824 242.400 C 99.471 242.400,100.000 242.580,100.000 242.800 C 100.000 243.020,100.450 243.200,101.000 243.200 C 101.550 243.200,102.000 243.380,102.000 243.600 C 102.000 243.820,102.540 244.000,103.200 244.000 C 103.860 244.000,104.400 244.180,104.400 244.400 C 104.400 244.620,105.120 244.800,106.000 244.800 C 106.880 244.800,107.600 244.980,107.600 245.200 C 107.600 245.420,108.320 245.600,109.200 245.600 C 110.080 245.600,110.800 245.780,110.800 246.000 C 110.800 246.226,111.933 246.400,113.400 246.400 C 114.867 246.400,116.000 246.574,116.000 246.800 C 116.000 247.031,117.277 247.200,119.031 247.200 C 122.126 247.200,125.200 249.096,125.200 251.004 C 125.200 251.300,125.651 251.897,126.203 252.331 C 126.840 252.832,127.116 253.353,126.960 253.760 C 126.793 254.194,126.936 254.400,127.404 254.400 C 127.920 254.400,128.046 254.647,127.906 255.380 C 127.786 256.007,127.930 256.441,128.305 256.585 C 128.683 256.730,128.824 257.163,128.701 257.805 C 128.597 258.352,128.666 258.800,128.855 258.800 C 129.045 258.800,129.200 260.388,129.200 262.328 C 129.200 266.005,128.413 267.600,126.597 267.600 C 126.269 267.600,126.000 267.780,126.000 268.000 C 126.000 268.220,125.370 268.400,124.600 268.400 C 123.830 268.400,123.200 268.580,123.200 268.800 C 123.200 269.028,122.008 269.200,120.424 269.200 C 118.897 269.200,117.536 269.020,117.400 268.800 C 117.264 268.580,116.173 268.400,114.976 268.400 C 113.779 268.400,112.800 268.220,112.800 268.000 C 112.800 267.780,112.080 267.600,111.200 267.600 C 110.320 267.600,109.600 267.420,109.600 267.200 C 109.600 266.980,109.285 266.797,108.900 266.794 C 108.045 266.787,105.869 266.026,104.039 265.093 C 103.290 264.712,102.345 264.400,101.939 264.400 C 101.532 264.400,101.200 264.220,101.200 264.000 C 101.200 263.780,100.955 263.600,100.656 263.600 C 99.998 263.600,95.213 261.201,94.471 260.500 C 94.181 260.225,93.596 260.000,93.171 260.000 C 92.739 260.000,92.400 259.726,92.400 259.376 C 92.400 259.033,92.220 258.864,92.000 259.000 C 91.780 259.136,91.600 259.057,91.600 258.824 C 91.600 258.591,91.229 258.400,90.776 258.400 C 90.323 258.400,90.047 258.247,90.163 258.060 C 90.278 257.873,89.884 257.468,89.286 257.160 C 87.737 256.361,80.803 249.520,80.801 248.788 C 80.801 248.452,80.440 247.917,80.000 247.600 C 79.560 247.283,79.200 246.693,79.200 246.288 C 79.200 245.884,79.020 245.664,78.800 245.800 C 78.580 245.936,78.400 245.687,78.400 245.247 C 78.400 244.807,78.220 244.336,78.000 244.200 C 77.780 244.064,77.600 243.513,77.600 242.976 C 77.600 242.439,77.420 242.000,77.200 242.000 C 76.482 242.000,76.688 231.339,77.424 230.481 C 78.017 229.788,78.128 229.831,79.732 231.376 C 80.659 232.269,81.935 233.360,82.567 233.800 M79.800 269.217 C 80.680 270.084,81.593 270.796,81.828 270.797 C 82.063 270.799,82.647 271.250,83.125 271.800 C 83.603 272.350,84.279 272.800,84.626 272.800 C 85.327 272.800,86.400 273.727,86.400 274.334 C 86.400 274.549,86.760 274.631,87.200 274.516 C 87.647 274.399,88.000 274.504,88.000 274.753 C 88.000 274.999,88.360 275.200,88.800 275.200 C 89.240 275.200,89.600 275.380,89.600 275.600 C 89.600 275.820,89.920 276.000,90.312 276.000 C 90.703 276.000,91.283 276.360,91.600 276.800 C 91.917 277.240,92.507 277.600,92.912 277.600 C 93.316 277.600,93.536 277.780,93.400 278.000 C 93.253 278.239,93.737 278.400,94.600 278.400 C 95.463 278.400,95.947 278.561,95.800 278.800 C 95.664 279.020,95.923 279.200,96.376 279.200 C 96.829 279.200,97.200 279.380,97.200 279.600 C 97.200 279.820,97.560 280.000,98.000 280.000 C 98.440 280.000,98.800 280.180,98.800 280.400 C 98.800 280.620,99.340 280.800,100.000 280.800 C 100.660 280.800,101.200 280.980,101.200 281.200 C 101.200 281.420,101.841 281.600,102.624 281.600 C 103.471 281.600,103.947 281.762,103.800 282.000 C 103.651 282.242,104.196 282.400,105.176 282.400 C 106.069 282.400,106.800 282.580,106.800 282.800 C 106.800 283.020,107.531 283.200,108.424 283.200 C 109.404 283.200,109.949 283.358,109.800 283.600 C 109.648 283.847,110.329 284.000,111.576 284.000 C 112.689 284.000,113.600 284.180,113.600 284.400 C 113.600 284.640,115.200 284.800,117.600 284.800 C 120.000 284.800,121.600 284.960,121.600 285.200 C 121.600 285.420,121.878 285.600,122.218 285.600 C 122.898 285.600,124.800 287.334,124.800 287.953 C 124.800 288.168,125.025 288.588,125.300 288.888 C 126.030 289.685,126.789 290.899,127.058 291.700 C 127.188 292.085,127.473 292.400,127.693 292.400 C 127.913 292.400,127.999 292.760,127.884 293.200 C 127.743 293.741,127.872 294.000,128.284 294.000 C 128.720 294.000,128.838 294.288,128.700 295.010 C 128.594 295.565,128.663 296.115,128.854 296.233 C 130.589 297.306,128.699 305.200,126.707 305.200 C 126.292 305.200,126.064 305.380,126.200 305.600 C 126.349 305.842,125.804 306.000,124.824 306.000 C 123.931 306.000,123.200 306.180,123.200 306.400 C 123.200 306.628,122.008 306.800,120.424 306.800 C 118.897 306.800,117.536 306.620,117.400 306.400 C 117.264 306.180,116.173 306.000,114.976 306.000 C 113.779 306.000,112.800 305.820,112.800 305.600 C 112.800 305.380,112.080 305.200,111.200 305.200 C 110.320 305.200,109.600 305.020,109.600 304.800 C 109.600 304.580,109.161 304.400,108.624 304.400 C 108.087 304.400,107.536 304.220,107.400 304.000 C 107.264 303.780,106.623 303.600,105.976 303.600 C 105.329 303.600,104.800 303.440,104.800 303.244 C 104.800 303.048,103.990 302.649,103.000 302.357 C 102.010 302.065,101.200 301.685,101.200 301.513 C 101.200 301.341,100.966 301.200,100.680 301.200 C 99.944 301.200,98.007 300.259,98.003 299.900 C 98.001 299.735,97.640 299.600,97.200 299.600 C 96.760 299.600,96.400 299.420,96.400 299.200 C 96.400 298.980,96.080 298.800,95.688 298.800 C 95.297 298.800,94.717 298.440,94.400 298.000 C 94.083 297.560,93.505 297.200,93.115 297.200 C 92.726 297.200,92.182 296.840,91.907 296.400 C 91.632 295.960,91.085 295.600,90.691 295.600 C 90.297 295.600,89.871 295.330,89.745 295.000 C 89.618 294.670,89.263 294.400,88.955 294.400 C 88.249 294.400,80.800 286.998,80.800 286.297 C 80.800 286.011,80.440 285.517,80.000 285.200 C 79.560 284.883,79.200 284.303,79.200 283.912 C 79.200 283.520,79.020 283.200,78.800 283.200 C 78.580 283.200,78.400 282.840,78.400 282.400 C 78.400 281.960,78.220 281.600,78.000 281.600 C 77.780 281.600,77.600 281.060,77.600 280.400 C 77.600 279.740,77.420 279.200,77.200 279.200 C 76.583 279.200,76.676 268.907,77.300 268.198 C 77.980 267.426,77.986 267.428,79.800 269.217 M79.997 306.900 C 79.999 307.065,80.281 307.200,80.624 307.200 C 80.967 307.200,81.136 307.379,81.001 307.598 C 80.866 307.817,81.260 308.218,81.877 308.489 C 82.495 308.760,83.291 309.301,83.647 309.691 C 84.003 310.081,84.548 310.400,84.859 310.400 C 85.169 310.400,85.683 310.760,86.000 311.200 C 86.317 311.640,86.897 312.000,87.288 312.000 C 87.680 312.000,88.000 312.180,88.000 312.400 C 88.000 312.620,88.360 312.800,88.800 312.800 C 89.240 312.800,89.600 312.980,89.600 313.200 C 89.600 313.420,89.960 313.600,90.400 313.600 C 90.840 313.600,91.200 313.780,91.200 314.000 C 91.200 314.220,91.470 314.400,91.800 314.400 C 92.130 314.400,92.400 314.580,92.400 314.800 C 92.400 315.020,92.861 315.200,93.424 315.200 C 94.004 315.200,94.340 315.373,94.200 315.600 C 94.060 315.827,94.396 316.000,94.976 316.000 C 95.539 316.000,96.000 316.180,96.000 316.400 C 96.000 316.620,96.349 316.800,96.776 316.800 C 97.203 316.800,97.664 316.980,97.800 317.200 C 97.936 317.420,98.397 317.600,98.824 317.600 C 99.251 317.600,99.600 317.780,99.600 318.000 C 99.600 318.220,100.129 318.400,100.776 318.400 C 101.423 318.400,102.064 318.580,102.200 318.800 C 102.336 319.020,102.876 319.200,103.400 319.200 C 103.924 319.200,104.464 319.380,104.600 319.600 C 104.736 319.820,105.467 320.000,106.224 320.000 C 106.981 320.000,107.600 320.180,107.600 320.400 C 107.600 320.620,108.320 320.800,109.200 320.800 C 110.080 320.800,110.800 320.980,110.800 321.200 C 110.800 321.420,111.779 321.600,112.976 321.600 C 114.173 321.600,115.264 321.780,115.400 322.000 C 115.543 322.232,117.730 322.400,120.600 322.400 C 123.470 322.400,125.657 322.232,125.800 322.000 C 125.936 321.780,126.757 321.600,127.624 321.600 L 129.200 321.600 129.200 325.000 C 129.200 326.870,129.032 328.400,128.827 328.400 C 128.622 328.400,128.351 328.724,128.225 329.120 C 127.970 329.924,125.909 330.800,124.272 330.800 C 123.586 330.800,123.200 331.016,123.200 331.400 C 123.200 331.875,122.627 332.000,120.443 332.000 C 118.361 332.000,117.629 331.853,117.455 331.400 C 117.290 330.968,116.613 330.800,115.036 330.800 C 113.832 330.800,112.736 330.620,112.600 330.400 C 112.464 330.180,111.733 330.000,110.976 330.000 C 110.219 330.000,109.600 329.841,109.600 329.646 C 109.600 329.451,108.613 329.169,107.406 329.018 C 106.200 328.867,105.109 328.577,104.983 328.372 C 104.856 328.167,104.313 328.000,103.776 328.000 C 103.204 328.000,102.800 327.767,102.800 327.437 C 102.800 327.072,102.520 326.948,102.000 327.084 C 101.444 327.230,101.200 327.096,101.200 326.647 C 101.200 326.224,100.854 326.000,100.200 326.000 C 99.650 326.000,99.200 325.828,99.200 325.618 C 99.200 325.408,98.570 325.118,97.800 324.974 C 97.030 324.829,96.400 324.551,96.400 324.355 C 96.400 324.160,96.080 324.000,95.688 324.000 C 95.297 324.000,94.717 323.640,94.400 323.200 C 94.083 322.760,93.543 322.400,93.200 322.400 C 92.857 322.400,92.317 322.040,92.000 321.600 C 91.683 321.160,91.143 320.800,90.800 320.800 C 90.457 320.800,89.917 320.440,89.600 320.000 C 89.283 319.560,88.882 319.200,88.708 319.200 C 87.996 319.200,81.152 312.581,81.503 312.231 C 81.629 312.104,81.523 312.000,81.267 312.000 C 81.010 312.000,80.800 311.764,80.800 311.475 C 80.800 311.187,80.440 310.564,80.000 310.092 C 79.560 309.620,79.200 309.046,79.200 308.817 C 79.200 308.588,79.020 308.400,78.800 308.400 C 78.580 308.400,78.400 308.040,78.400 307.600 C 78.400 307.160,78.220 306.800,78.000 306.800 C 77.780 306.800,77.600 306.448,77.600 306.019 C 77.600 305.266,77.644 305.262,78.797 305.919 C 79.456 306.293,79.996 306.735,79.997 306.900 " stroke="none" fill="#121a61" fill-rule="evenodd"></path><path id="path3" d="M108.173 25.800 C 108.173 31.300,108.230 33.605,108.299 30.923 C 108.368 28.241,108.368 23.741,108.299 20.923 C 108.230 18.105,108.174 20.300,108.173 25.800 M108.195 113.800 C 108.195 147.900,108.242 161.909,108.300 144.931 C 108.358 127.954,108.358 100.054,108.300 82.931 C 108.242 65.809,108.195 79.700,108.195 113.800 M60.534 199.600 C 60.534 201.250,60.605 201.925,60.691 201.100 C 60.778 200.275,60.778 198.925,60.691 198.100 C 60.605 197.275,60.534 197.950,60.534 199.600 M102.100 227.087 C 102.705 227.178,103.200 227.421,103.200 227.627 C 103.200 227.832,103.549 228.000,103.976 228.000 C 104.403 228.000,104.851 228.159,104.971 228.354 C 105.092 228.549,105.723 228.786,106.374 228.882 C 107.025 228.977,107.467 228.908,107.355 228.728 C 107.244 228.547,106.809 228.400,106.389 228.400 C 105.968 228.400,104.983 228.040,104.200 227.600 C 103.417 227.160,102.376 226.827,101.888 226.860 C 101.190 226.907,101.235 226.955,102.100 227.087 M118.900 231.891 C 119.725 231.978,121.075 231.978,121.900 231.891 C 122.725 231.805,122.050 231.734,120.400 231.734 C 118.750 231.734,118.075 231.805,118.900 231.891 M60.528 237.200 C 60.528 238.630,60.601 239.215,60.689 238.500 C 60.778 237.785,60.778 236.615,60.689 235.900 C 60.601 235.185,60.528 235.770,60.528 237.200 M93.824 240.587 C 94.251 240.910,94.870 241.179,95.200 241.185 C 95.530 241.190,95.284 240.926,94.654 240.598 C 93.195 239.837,92.825 239.832,93.824 240.587 M60.524 274.600 C 60.526 275.920,60.601 276.412,60.690 275.693 C 60.779 274.974,60.777 273.894,60.686 273.293 C 60.595 272.692,60.522 273.280,60.524 274.600 M139.200 280.878 C 139.200 281.005,139.469 281.624,139.798 282.254 C 140.126 282.884,140.390 283.130,140.385 282.800 C 140.379 282.470,140.110 281.851,139.787 281.424 C 139.464 280.996,139.200 280.751,139.200 280.878 M60.531 299.400 C 60.533 300.940,60.605 301.521,60.692 300.691 C 60.779 299.861,60.777 298.601,60.689 297.891 C 60.600 297.181,60.529 297.860,60.531 299.400 M259.992 297.410 C 259.714 297.745,259.602 298.135,259.743 298.276 C 259.884 298.418,260.000 298.313,260.000 298.043 C 260.000 297.773,260.180 297.664,260.400 297.800 C 260.620 297.936,260.800 297.767,260.800 297.424 C 260.800 296.642,260.631 296.639,259.992 297.410 M244.114 329.000 C 244.117 330.100,244.195 330.503,244.287 329.895 C 244.379 329.286,244.377 328.386,244.282 327.895 C 244.187 327.403,244.111 327.900,244.114 329.000 M103.400 327.867 C 103.840 327.963,104.560 328.197,105.000 328.387 C 106.290 328.945,107.620 329.155,107.377 328.763 C 107.254 328.563,106.724 328.400,106.200 328.400 C 105.676 328.400,105.136 328.220,105.000 328.000 C 104.864 327.780,104.268 327.621,103.676 327.646 C 102.876 327.681,102.805 327.738,103.400 327.867 M118.900 331.891 C 119.725 331.978,121.075 331.978,121.900 331.891 C 122.725 331.805,122.050 331.734,120.400 331.734 C 118.750 331.734,118.075 331.805,118.900 331.891 M336.893 336.000 C 336.893 336.770,336.975 337.085,337.076 336.700 C 337.176 336.315,337.176 335.685,337.076 335.300 C 336.975 334.915,336.893 335.230,336.893 336.000 M258.172 338.928 C 258.061 339.219,258.023 341.244,258.088 343.428 L 258.206 347.400 258.403 342.899 C 258.598 338.445,258.566 337.901,258.172 338.928 M93.824 340.587 C 94.251 340.910,94.870 341.179,95.200 341.185 C 95.530 341.190,95.284 340.926,94.654 340.598 C 93.195 339.837,92.825 339.832,93.824 340.587 M257.359 353.600 C 257.359 356.790,257.421 358.095,257.497 356.500 C 257.573 354.905,257.573 352.295,257.497 350.700 C 257.421 349.105,257.359 350.410,257.359 353.600 M258.109 361.200 C 258.109 362.190,258.187 362.595,258.282 362.100 C 258.378 361.605,258.378 360.795,258.282 360.300 C 258.187 359.805,258.109 360.210,258.109 361.200 M257.354 363.777 C 257.232 364.094,257.217 364.679,257.320 365.077 C 257.446 365.564,257.522 365.452,257.554 364.733 C 257.579 364.147,257.825 363.576,258.100 363.465 C 258.492 363.307,258.489 363.256,258.087 363.232 C 257.806 363.214,257.475 363.459,257.354 363.777 " stroke="none" fill="#141c5c" fill-rule="evenodd"></path><path id="path4" d="" stroke="none" fill="#c48034" fill-rule="evenodd"></path></g></svg>